<?xml version="1.0" encoding="utf-8"?>
<!-- Generator: Adobe Illustrator 25.2.1, SVG Export Plug-In . SVG Version: 6.00 Build 0)  -->
<svg version="1.1" id="Layer_1" xmlns="http://www.w3.org/2000/svg" xmlns:xlink="http://www.w3.org/1999/xlink" x="0px" y="0px"
	 width="224.7px" height="295.7px" viewBox="0 0 224.7 295.7" style="enable-background:new 0 0 224.7 295.7;" xml:space="preserve"
	>
<g>
	<path d="M0,148c0-5,0-9.9,0-14.9c0-1.3,0.4-2.3,1.5-3c2.9-1.9,5.8-4,8.8-5.7c6.2-3.5,12.5-6.8,18.7-10.1c0.8-0.4,1.5-0.6,2.4-0.1
		c7.7,4.6,15.4,9.1,23.1,13.7c1.6,0.9,3,2.1,4.4,3.3c0.4,0.3,0.8,1,0.8,1.6c0,10,0,20,0,30c0,0.6-0.4,1.3-0.8,1.7
		c-2.9,2.1-5.8,4.2-8.8,6c-6.1,3.7-12.4,7.3-18.6,10.9c-0.4,0.2-1.1,0.3-1.5,0.2c-1.5-0.5-3-1-4.4-1.8c-8.3-4.9-16.5-9.8-24.8-14.8
		c-0.4-0.2-0.6-0.9-0.6-1.4C0,158.4,0,153.2,0,148z"/>
	<path d="M191.1,261.7c0,5.1,0,10.2,0,15.2c0,1.1-0.3,1.9-1.2,2.5c-2.8,1.9-5.5,3.9-8.4,5.6c-6.4,3.6-13,7-19.5,10.5
		c-0.4,0.2-1,0.3-1.4,0.1c-8.2-4.6-16.4-9.3-24.6-14c-1.3-0.8-2.6-1.7-3.8-2.7c-0.5-0.4-0.8-1.2-0.8-1.8c-0.1-10,0-19.9-0.1-29.9
		c0-1,0.4-1.5,1.1-2c3.5-2.3,6.9-4.8,10.5-7c5.5-3.3,11.1-6.5,16.7-9.7c0.6-0.3,1.6-0.4,2.2-0.1c3.5,1.7,7.1,3.3,10.5,5.2
		c6.1,3.6,12,7.4,17.9,11.1c0.6,0.4,0.8,0.8,0.8,1.6C191.1,251.4,191.1,256.6,191.1,261.7z"/>
	<path d="M191.1,34c0,5.1,0,10.2,0,15.3c0,0.5-0.3,1.2-0.7,1.4c-7.8,4.8-15.6,9.5-23.5,14.2c-1.7,1-3.7,1.6-5.6,2.4
		c-0.4,0.1-1,0.1-1.3-0.1c-8.4-5-16.8-9.9-25-15c-3.6-2.2-3.5-2.4-3.5-6.6c0-8.8,0-17.7,0-26.5c0-1.1,0.4-1.7,1.1-2.3
		c4.4-3.6,9.3-6.5,14.3-9.2c4.8-2.6,9.6-5,14.5-7.4c0.4-0.2,1.1-0.3,1.5-0.1c7.7,4.4,15.4,8.9,23.1,13.4c1.6,0.9,3,2.1,4.4,3.3
		c0.5,0.4,0.8,1.2,0.8,1.9C191.1,23.8,191.1,28.9,191.1,34z"/>
	<path d="M92.3,205.1c0,4.8,0,9.7,0,14.5c0,1.2-0.3,2.1-1.3,2.8c-2.2,1.5-4.3,3.2-6.6,4.5c-7.1,4-14.2,7.8-21.4,11.6
		c-0.5,0.3-1.4,0.3-1.9,0c-8.2-4.8-16.3-9.7-24.5-14.6c-1.2-0.7-2.2-1.6-3.2-2.5c-0.4-0.4-0.8-1.1-0.8-1.7c0-9.9,0-19.7-0.1-29.6
		c0-0.9,0.3-1.5,0.9-1.9c3.3-2.3,6.6-4.6,10-6.7c5.7-3.4,11.4-6.7,17.2-10c0.4-0.2,1-0.3,1.4-0.2c9.5,4.1,18.7,8.6,26.9,15
		c3.2,2.5,3.2,2.5,3.2,6.6C92.3,197,92.3,201.1,92.3,205.1z"/>
	<path d="M92.3,90.4c0,4.9,0,9.8,0,14.6c0,1.2-0.4,2-1.3,2.7c-5.2,4.4-11.1,8-17.2,11.1c-3.8,1.9-7.6,3.6-11.5,5.4
		c-0.4,0.2-1.1,0.2-1.4,0c-8-4.8-16.1-9.5-24.1-14.4c-1.3-0.8-2.5-1.8-3.6-2.7c-0.4-0.3-0.7-0.9-0.7-1.4c0-10,0-20.1,0-30.1
		c0-0.5,0.4-1.2,0.9-1.5c2.8-2,5.5-4,8.4-5.8c6.3-3.8,12.6-7.4,18.9-11.1c0.9-0.5,1.7-0.4,2.5,0c3.4,1.7,6.9,3.3,10.1,5.2
		c6.1,3.6,12.1,7.4,18.1,11c0.6,0.4,0.8,0.9,0.8,1.6C92.3,80.2,92.3,85.3,92.3,90.4z"/>
	<path d="M191.1,147.8c0,5.2,0,10.5,0,15.7c0,0.5-0.3,1.2-0.7,1.4c-8.1,4.9-16.1,9.9-24.3,14.7c-4.2,2.5-4.3,2.4-8.6,0
		c-6.8-3.8-13.6-7.6-20.3-11.6c-1.7-1-3.2-2.3-4.8-3.4c-0.7-0.5-0.9-1.2-0.9-2.1c0-9.8,0-19.7,0-29.5c0-0.9,0.3-1.4,0.9-1.9
		c8.6-6.7,18.2-11.9,28-16.5c1.3-0.6,2.2-0.6,3.5,0.2c8.7,5.3,17.5,10.4,26.3,15.6c0.8,0.4,1,0.9,1,1.8
		C191.1,137.5,191.1,142.7,191.1,147.8z"/>
	<path d="M165,204.8c0-5.2,0-10.5,0-15.7c0-0.5,0.3-1.1,0.6-1.4c8.5-5.5,17-10.9,26-15.5c2.2-1.1,3.9-1.1,6,0.2
		c7.1,4.2,14.3,8.1,21.4,12.3c1.6,1,3.1,2.2,4.7,3.4c0.7,0.5,0.9,1.2,0.9,2.1c0,9.8,0,19.7,0,29.5c0,0.8-0.2,1.3-0.8,1.8
		c-4.8,4-10.2,7.1-15.7,10.1c-4.4,2.4-8.9,4.5-13.3,6.8c-0.6,0.3-1.1,0.3-1.7-0.1c-9-5.4-18-10.7-27.1-16.1c-0.8-0.4-1-1-1-1.8
		C165,215.2,165,210,165,204.8z"/>
	<path d="M224.6,90.7c0,5,0,9.9,0,14.9c0,0.7-0.2,1.2-0.8,1.6c-8.6,6.7-18.1,11.9-28,16.6c-1.5,0.7-2.6,0.6-4-0.2
		c-8.6-5.2-17.3-10.3-25.9-15.4c-0.7-0.4-1-0.9-1-1.8c0-10.4,0-20.8,0-31.2c0-0.9,0.3-1.4,1-1.8c8-4.8,16-9.7,24-14.4
		c4.3-2.5,4.4-2.4,8.7,0c7.4,4.2,14.9,8.4,22.2,12.8c3.9,2.3,3.8,2.5,3.8,6.9C224.6,82.7,224.6,86.7,224.6,90.7z"/>
	<path d="M124.9,261.9c0,5.2,0,10.5,0,15.7c0,0.8-0.3,1.4-0.9,1.9c-5.7,4.3-12,7.6-18.3,11c-3.2,1.7-6.4,3.3-9.6,4.9
		c-0.7,0.4-1.2,0.4-2,0c-9-5.4-18-10.8-27.1-16.1c-0.7-0.4-0.9-0.8-0.9-1.6c0-10.5,0-20.9,0-31.4c0-0.8,0.3-1.2,0.8-1.7
		c5-3.8,10.5-6.8,16-9.8c4-2.1,8.1-4.2,12.1-6.2c0.4-0.2,1.1-0.3,1.5-0.1c8.1,4.6,16.2,9.2,24.2,13.9c1.4,0.8,3.1,1.7,3.8,3
		c0.6,1.1,0.2,2.9,0.2,4.4C124.9,253.8,124.9,257.8,124.9,261.9z"/>
	<path d="M124.9,33.6c0,5.3,0,10.5,0,15.8c0,0.5-0.2,1.2-0.6,1.4c-8.9,6.1-17.9,11.8-27.8,16.2c-1,0.5-1.8,0.4-2.7-0.2
		C85,61.5,76.1,56.3,67.3,51c-0.8-0.5-1.1-0.9-1.1-1.9c0-10.3,0-20.7,0-31c0-0.8,0.2-1.4,0.9-1.9C76,10,85.5,4.8,95.3,0.1
		c0.4-0.2,1-0.1,1.4,0.1c9.1,5.4,18.3,10.8,27.4,16.2c0.7,0.4,0.8,0.9,0.8,1.6C124.9,23.2,124.9,28.4,124.9,33.6z"/>
	<path d="M66.2,147.7c0-5.2,0-10.4,0-15.6c0-0.8,0.2-1.2,0.8-1.7c9-6.3,18.5-11.5,28.3-16.2c0.4-0.2,1-0.1,1.3,0.1
		c9.2,5.4,18.4,10.9,27.6,16.4c0.3,0.2,0.7,0.8,0.7,1.2c0,10.6,0,21.2,0,31.8c0,0.4-0.3,1-0.6,1.3c-7.7,4.8-15.4,9.5-23.2,14.2
		c-1.6,0.9-3.3,1.6-5,2.3c-0.5,0.2-1.3,0.1-1.7-0.2c-9.1-5.3-18.1-10.7-27.2-16.1c-0.7-0.4-1-0.9-1-1.7
		C66.2,158.2,66.2,153,66.2,147.7z"/>
</g>
</svg>
