<svg id="Layer_1" data-name="Layer 1" xmlns="http://www.w3.org/2000/svg" viewBox="0 0 1164.87 2994.22">
    <path d="M.19,1522.85c5.68,2,9.42,3.05,13,4.54,112.77,47.13,226.3,92.42,336.38,145.9,64.71,31.44,130.26,61.25,193.39,95.78,96.66,52.89,187.6,114.53,273.48,183.6,65.44,52.64,129.66,106.67,189.42,165.82,73.8,73,122.15,160.65,149.79,260.26,13.37,48.19,11.95,95.94-2.4,143.75-17.59,58.58-43.17,113.28-78.39,163.24-39.24,55.67-81.59,109-133,153.94-76.27,66.68-162.52,115.79-261,142-47.25,12.58-95.19,15-143.69,10.33-35.63-3.4-70.49-10.2-104.37-21.85-50.83-17.49-95.49-45.86-136.24-80.11C159.79,2775.17,75.6,2628.93,39.58,2454.52A839.31,839.31,0,0,1,24,2337.82c-3.46-54.49-7.58-109-10.08-163.51-2.32-50.56-2.87-101.21-4.21-151.82-1.18-44.28-2.45-88.55-3.52-132.83-.89-36.63-1.45-73.27-2.34-109.89C2.68,1733.15,1,1686.55.28,1639.93c-.57-34.64-.1-69.3-.09-104Z"/>
    <path d="M1,1471.65c-.33-3.92-.73-6.5-.73-9.08,0-42-.45-84,.15-126,.82-56.29,2.19-112.57,3.81-168.85,1.42-49.61,3.89-99.19,5.2-148.8,1.21-45.62.93-91.29,2.33-136.9,1.43-46.61,4-93.19,6.28-139.77,1.09-21.95,3-43.86,4.2-65.8C30.43,530.78,68.33,394.25,148.39,271c42.79-65.88,94.45-124.06,156-173C353,59.23,406.09,28.51,467.43,14,513.77,3,560.72-2.16,608.21.84c47.24,3,92.69,14.87,136.45,32.72C852.91,77.7,944.91,144,1018.51,235.28c29.92,37.13,59.75,74.25,83.25,116a598.32,598.32,0,0,1,51.87,122.08c15.21,50.67,14.51,100.89-.42,151.51-29.47,99.91-80,187-155.43,259.29a2527.86,2527.86,0,0,1-259.62,217.41c-97.18,70.9-200.72,131.24-309.65,182.25-75.13,35.17-149.95,71-225.77,104.65-63,27.93-127.32,53-191.06,79.33C8.65,1469,5.51,1470,1,1471.65Z"/>
</svg>