<?xml version="1.0" encoding="utf-8"?>
<!-- Generator: Adobe Illustrator 25.2.1, SVG Export Plug-In . SVG Version: 6.00 Build 0)  -->
<svg version="1.1" id="Layer_1" xmlns="http://www.w3.org/2000/svg" xmlns:xlink="http://www.w3.org/1999/xlink" x="0px" y="0px"
	 width="37.5px" height="37.5px" viewBox="0 0 37.5 37.5" style="enable-background:new 0 0 37.5 37.5;" xml:space="preserve">
<style type="text/css">
	.st0{fill:#C0AEE8;}
</style>
<g>
	<path class="st0" d="M18.6,0c10.6,0,18.9,8.3,18.8,18.8c0,10.2-8.5,18.7-18.7,18.8C8.4,37.6,0,29,0,18.4C0,8.2,8.3,0,18.6,0z
		 M18.7,35.2c9.2,0,16.7-7.4,16.7-16.5c-0.1-9-7.6-16.6-16.7-16.6C9.6,2.1,1.8,9.7,2,18.7C2.3,29.5,11.3,35.7,18.7,35.2z"/>
	<path class="st0" d="M19.1,6.5c0.3,0.7,0.7,1.4,0.7,2c0.1,2.5-0.1,5,0.1,7.5c0.1,1.3,0.8,2.8,1.6,3.8c1.3,1.6,2.9,2.9,4.3,4.5
		c0.3,0.4,0.2,1.1,0.2,1.7c-0.6,0-1.4,0.1-1.7-0.2c-2.2-2-4.3-4.2-6.3-6.3c-0.3-0.4-0.5-1-0.5-1.6c0-3.2-0.1-6.3,0-9.5
		c0-0.7,0.5-1.3,0.8-2C18.6,6.5,18.9,6.5,19.1,6.5z"/>
</g>
</svg>
