<?xml version="1.0" encoding="utf-8"?>
<!-- Generator: Adobe Illustrator 25.2.1, SVG Export Plug-In . SVG Version: 6.00 Build 0)  -->
<svg version="1.1" id="Layer_1" xmlns="http://www.w3.org/2000/svg" xmlns:xlink="http://www.w3.org/1999/xlink" x="0px" y="0px"
	 width="10.4px" height="10.5px" viewBox="0 0 10.4 10.5" style="enable-background:new 0 0 10.4 10.5;" xml:space="preserve">
<style type="text/css">
	.st0{fill:#C0AEE8;}
</style>
<g>
	<path class="st0" d="M0,10.5c0-0.1,0.1-0.3,0.1-0.4C0.4,9.4,0.6,8.7,0.9,8c0,0,0-0.1,0-0.1c-0.3-0.5-0.6-1-0.7-1.6
		C0.1,5.8,0,5.3,0.1,4.8c0.1-1.1,0.4-2,1.1-2.8c0.6-0.8,1.4-1.4,2.4-1.7C3.9,0.2,4.3,0.1,4.6,0C5,0,5.4,0,5.8,0
		C6.7,0.1,7.5,0.4,8.3,1c1,0.7,1.7,1.7,2,2.9c0.1,0.6,0.2,1.1,0.1,1.7c-0.1,1.1-0.5,2.1-1.2,2.9C8.7,9.2,8,9.7,7.3,10
		c-0.4,0.2-0.9,0.3-1.3,0.4c-0.4,0.1-0.9,0.1-1.3,0c-0.4-0.1-0.7-0.2-1.1-0.3C3.3,10,3.1,9.9,2.8,9.7c0,0,0,0-0.1,0
		C2.2,9.9,1.7,10,1.1,10.2C0.8,10.3,0.4,10.4,0,10.5C0,10.5,0,10.5,0,10.5z M1.3,9.3C1.3,9.3,1.3,9.3,1.3,9.3c0.5-0.1,1-0.3,1.5-0.4
		c0,0,0.1,0,0.1,0c0.5,0.3,1.1,0.5,1.6,0.6c0.4,0.1,0.9,0.1,1.3,0c0.4,0,0.8-0.1,1.1-0.3C7.5,9,8.1,8.6,8.5,8.2
		c0.6-0.7,1-1.5,1.1-2.4c0.1-0.4,0-0.9,0-1.3c-0.1-0.8-0.5-1.5-1-2.2C7.8,1.4,6.8,0.9,5.7,0.8c-0.5-0.1-1,0-1.5,0.1
		C3.1,1.2,2.3,1.8,1.6,2.7C1,3.5,0.8,4.5,0.9,5.5C0.9,6,1,6.5,1.2,6.9c0.1,0.4,0.3,0.7,0.6,1c0,0,0,0,0,0.1C1.6,8.3,1.5,8.7,1.4,9.1
		C1.3,9.2,1.3,9.2,1.3,9.3z"/>
	<path class="st0" d="M3.4,2.4c0.1,0,0.1,0,0.2,0c0.1,0,0.1,0,0.1,0.1c0,0.1,0.1,0.1,0.1,0.2C4,3,4.1,3.3,4.3,3.7c0,0,0,0.1,0.1,0.1
		c0,0.1,0,0.1,0,0.2C4.2,4.2,4.1,4.3,4,4.4c0,0-0.1,0.1-0.1,0.1c-0.1,0.1-0.1,0.2,0,0.3C4,5.1,4.2,5.3,4.4,5.5
		C4.7,5.9,5,6.2,5.5,6.4c0.1,0.1,0.2,0.1,0.3,0.2c0.1,0.1,0.2,0,0.3-0.1C6.2,6.4,6.4,6.2,6.5,6c0.1-0.1,0.1-0.1,0.2-0.1
		C6.9,5.9,7,6,7.1,6c0.3,0.1,0.5,0.3,0.8,0.4C8,6.5,8,6.6,8,6.7c0,0.2,0,0.4-0.1,0.6c0,0.1-0.1,0.2-0.2,0.3C7.5,7.7,7.3,7.9,7.1,8
		C6.9,8,6.7,8,6.6,8C6.3,8,6.1,7.9,5.9,7.8C5.6,7.7,5.3,7.6,5.1,7.5C4.7,7.2,4.4,7,4.1,6.7C3.7,6.3,3.3,5.8,3,5.4
		C2.8,5.1,2.7,4.9,2.6,4.6C2.5,4.3,2.4,4.1,2.4,3.8c0-0.4,0.1-0.8,0.4-1.1C2.9,2.6,3,2.5,3,2.5c0.1-0.1,0.2-0.1,0.3-0.1
		C3.3,2.4,3.4,2.4,3.4,2.4C3.4,2.4,3.4,2.4,3.4,2.4z"/>
</g>
</svg>
