<?xml version="1.0" encoding="utf-8"?>
<!-- Generator: Adobe Illustrator 25.2.1, SVG Export Plug-In . SVG Version: 6.00 Build 0)  -->
<svg version="1.1" id="Layer_1" xmlns="http://www.w3.org/2000/svg" xmlns:xlink="http://www.w3.org/1999/xlink" x="0px" y="0px"
	 width="212.3px" height="211.8px" viewBox="0 0 212.3 211.8" style="enable-background:new 0 0 212.3 211.8;" xml:space="preserve"
	>
<style type="text/css">
	.st0{fill:#C0AEE8;}
</style>
<g>
	<path class="st0" d="M117.7,87.3c18.2-17.6,46-22.4,68.9-12.3c16.1,7.1,22.2,20.9,24,37.1c1.2,10.6,1.4,21.3,1.5,31.9
		c0.2,19.7,0.1,39.3,0.1,59c0,10.9-0.3,8.6-8.5,8.7c-10,0.1-20-0.1-30,0.1c-3.8,0.1-4.8-1.2-4.8-4.9c0.1-20.5,0.2-41,0-61.5
		c-0.1-7.1-0.6-14.3-2-21.3c-2.3-12-9.4-17.6-21.2-17.9c-12.9-0.4-20.7,4.8-24,16.6c-1.2,4.1-1.9,8.5-2,12.8
		c-0.2,23.2-0.2,46.3-0.2,69.5c0,6.7,0,6.7-6.5,6.7c-10.3,0-20.7-0.1-31,0.1c-3.8,0.1-4.9-1.4-4.9-5c0.1-43.8,0.1-87.7,0-131.5
		c0-3.8,1.2-5.4,5.2-5.3c10.2,0.2,20.3,0.2,30.5,0c3.7-0.1,5.1,1.3,4.9,5C117.5,79,117.7,82.9,117.7,87.3z"/>
	<path class="st0" d="M50.5,140.8c0,21,0,42,0,62.9c0,8,0,8-8.2,8c-12.3,0-24.6-0.1-37,0.1c-3.7,0.1-5.3-0.8-5.3-5
		C0.1,162.9,0.1,119,0,75c0-3.7,1.2-5,4.9-4.9c13.3,0.1,26.6,0.2,40,0c4.5-0.1,5.7,1.6,5.7,5.8C50.4,97.5,50.5,119.2,50.5,140.8z"/>
	<path class="st0" d="M0.1,25.2C0,11.2,11,0.1,25,0s25.1,10.8,25.4,24.8c0.3,13.6-11.2,25.1-25,25.3C11.6,50.3,0.1,39,0.1,25.2z"/>
</g>
</svg>
