<?xml version="1.0" encoding="utf-8"?>
<!-- Generator: Adobe Illustrator 25.2.1, SVG Export Plug-In . SVG Version: 6.00 Build 0)  -->
<svg version="1.1" id="Layer_1" xmlns="http://www.w3.org/2000/svg" xmlns:xlink="http://www.w3.org/1999/xlink" x="0px" y="0px"
	 width="1348.4px" height="943.2px" viewBox="0 0 1348.4 943.2" style="enable-background:new 0 0 1348.4 943.2;"
	 xml:space="preserve">
<style type="text/css">
	.st0{fill:#DEDEE6;}
</style>
<g>
	<path class="st0" d="M671.9,943.2c-54.9-0.8-125.6-1.7-196.2-3.1c-38-0.8-75.9-2.2-113.9-4c-36.9-1.8-73.8-4.1-110.7-7
		c-33.2-2.6-66.6-4.9-98.8-13.4C86.2,898.3,44,855.8,26.4,789.7c-8.5-32.1-12.6-65-15.3-98C8.2,657,5.3,622.3,3.4,587.6
		C0.1,526.3-1.3,465,1.5,403.7c2.3-50.7,5.9-101.4,9.6-152c2.6-34.7,6.6-69.4,16.4-102.9C47.2,81.8,91.4,39.4,160,24.4
		c34.4-7.5,69.5-10.3,104.5-12.3c59.2-3.3,118.4-6.9,177.6-8.7C510.4,1.3,578.7,0.4,647,0c60.3-0.3,120.6,0.3,181,1.4
		c51.5,1,102.9,2.8,154.4,5c37.1,1.6,74.2,4,111.2,7c33.8,2.7,67.7,5.5,100.8,13.6c66.7,16.5,109,58.4,126.7,124.8
		c8.7,32.5,13.4,65.9,16.2,99.4c3.4,41.3,6.6,82.7,8.8,124.1c2.8,54.6,3.3,109.3,0.9,163.9c-2,45.1-4.5,90.2-8.1,135.1
		c-3.3,41.4-7.9,82.9-19.5,123c-18.6,64.1-61.1,104.2-125.8,119.4c-23.8,5.6-48.6,7.9-73,10.4c-29.5,3-59.1,4.9-88.6,6.8
		c-23.3,1.5-46.6,2.5-69.9,3.3c-44.8,1.5-89.6,2.9-134.4,3.8C781,942.1,734.3,942.4,671.9,943.2z M891.1,471.7
		c-117.7-67.9-234.4-135.3-351.6-203c0,135.4,0,269.7,0,405.1C656.8,606.4,773.5,539.3,891.1,471.7z"/>
</g>
</svg>
