<?xml version="1.0" encoding="utf-8"?>
<!-- Generator: Adobe Illustrator 25.2.1, SVG Export Plug-In . SVG Version: 6.00 Build 0)  -->
<svg version="1.1" id="Layer_1" xmlns="http://www.w3.org/2000/svg" xmlns:xlink="http://www.w3.org/1999/xlink" x="0px" y="0px"
	 width="10.4px" height="10.5px" viewBox="0 0 10.4 10.5" style="enable-background:new 0 0 10.4 10.5;" xml:space="preserve">
<style type="text/css">
	.st0{fill:#DEDEE6;}
</style>
<g>
	<path class="st0" d="M0,10.5c0-0.1,0.1-0.3,0.1-0.4C0.4,9.4,0.6,8.7,0.9,8V7.9c-0.3-0.5-0.6-1-0.7-1.6C0.1,5.8,0,5.3,0.1,4.8
		c0.1-1.1,0.4-2,1.1-2.8c0.6-0.8,1.4-1.4,2.4-1.7c0.3-0.1,0.7-0.2,1-0.3C5,0,5.4,0,5.8,0c0.9,0.1,1.7,0.4,2.5,1c1,0.7,1.7,1.7,2,2.9
		c0.1,0.6,0.2,1.1,0.1,1.7c-0.1,1.1-0.5,2.1-1.2,2.9C8.7,9.2,8,9.7,7.3,10c-0.4,0.2-0.9,0.3-1.3,0.4c-0.4,0.1-0.9,0.1-1.3,0
		S4,10.2,3.6,10.1C3.3,10,3.1,9.9,2.8,9.7c0,0,0,0-0.1,0c-0.5,0.2-1,0.3-1.6,0.5C0.8,10.3,0.4,10.4,0,10.5L0,10.5z M1.3,9.3L1.3,9.3
		c0.5-0.1,1-0.3,1.5-0.4h0.1C3.4,9.2,4,9.4,4.5,9.5c0.4,0.1,0.9,0.1,1.3,0c0.4,0,0.8-0.1,1.1-0.3c0.6-0.2,1.2-0.6,1.6-1
		c0.6-0.7,1-1.5,1.1-2.4c0.1-0.4,0-0.9,0-1.3C9.5,3.7,9.1,3,8.6,2.3C7.8,1.4,6.8,0.9,5.7,0.8c-0.5-0.1-1,0-1.5,0.1
		C3.1,1.2,2.3,1.8,1.6,2.7C1,3.5,0.8,4.5,0.9,5.5c0,0.5,0.1,1,0.3,1.4c0.1,0.4,0.3,0.7,0.6,1c0,0,0,0,0,0.1C1.6,8.3,1.5,8.7,1.4,9.1
		C1.3,9.2,1.3,9.2,1.3,9.3z"/>
	<path class="st0" d="M3.4,2.4c0.1,0,0.1,0,0.2,0c0.1,0,0.1,0,0.1,0.1s0.1,0.1,0.1,0.2C4,3,4.1,3.3,4.3,3.7c0,0,0,0.1,0.1,0.1
		c0,0.1,0,0.1,0,0.2C4.2,4.2,4.1,4.3,4,4.4L3.9,4.5c-0.1,0.1-0.1,0.2,0,0.3C4,5.1,4.2,5.3,4.4,5.5C4.7,5.9,5,6.2,5.5,6.4
		c0.1,0.1,0.2,0.1,0.3,0.2c0.1,0.1,0.2,0,0.3-0.1C6.2,6.4,6.4,6.2,6.5,6c0.1-0.1,0.1-0.1,0.2-0.1C6.9,5.9,7,6,7.1,6
		c0.3,0.1,0.5,0.3,0.8,0.4C8,6.5,8,6.6,8,6.7c0,0.2,0,0.4-0.1,0.6c0,0.1-0.1,0.2-0.2,0.3C7.5,7.7,7.3,7.9,7.1,8C6.9,8,6.7,8,6.6,8
		C6.3,8,6.1,7.9,5.9,7.8C5.6,7.7,5.3,7.6,5.1,7.5C4.7,7.2,4.4,7,4.1,6.7C3.7,6.3,3.3,5.8,3,5.4C2.8,5.1,2.7,4.9,2.6,4.6
		C2.5,4.3,2.4,4.1,2.4,3.8c0-0.4,0.1-0.8,0.4-1.1C2.9,2.6,3,2.5,3,2.5c0.1-0.1,0.2-0.1,0.3-0.1H3.4L3.4,2.4z"/>
</g>
</svg>
