<?xml version="1.0" encoding="utf-8"?>
<!-- Generator: Adobe Illustrator 25.2.1, SVG Export Plug-In . SVG Version: 6.00 Build 0)  -->
<svg version="1.1" id="Layer_1" xmlns="http://www.w3.org/2000/svg" xmlns:xlink="http://www.w3.org/1999/xlink" x="0px" y="0px"
	 width="245px" height="197.6px" viewBox="0 0 245 197.6" style="enable-background:new 0 0 245 197.6;" xml:space="preserve">
<style type="text/css">
	.st0{fill:#C0AEE8;}
</style>
<g>
	<path class="st0" d="M0,174.4c26,2.2,49.7-3.4,71.8-19.3c-22.4-3.2-37.6-14-45.7-35.4h18.3C22.4,110.3,9.9,94.6,8.3,70
		c6.9,1.9,12.9,3.7,18.9,5.4c0.4-0.8,0.3-0.6,0.7-1.4C15.6,63.4,8.9,50.1,9,33.9c0.1-8.5,2.1-16.7,7.4-24.6
		C43.7,40.5,77.3,58,118.3,60.9c0.5-7.4,0-14.4,1.4-20.9c7.9-37.2,53.1-52.6,82.2-28c3.7,3.2,6.9,3.9,11.2,2.2
		c6.6-2.6,13.3-5.2,20-7.8c1.5-0.6,2.9-1.3,4.6-2.1c-0.7,7.1-3.4,11-17,26.6c7.8-2.2,15.6-4.3,24.4-6.7c-5.6,8.9-12,15.7-19.5,21.5
		c-3.8,2.9-5.3,5.9-5.3,10.8c-0.2,62.5-44.4,127.2-117.3,139c-35,5.5-68,0.4-98.9-17.2c-1.2-0.7-2.3-1.4-3.4-2.1
		C0.5,176,0.5,175.6,0,174.4z"/>
</g>
</svg>
