<?xml version="1.0" encoding="utf-8"?>
<!-- Generator: Adobe Illustrator 25.2.1, SVG Export Plug-In . SVG Version: 6.00 Build 0)  -->
<svg version="1.1" id="Layer_1" xmlns="http://www.w3.org/2000/svg" xmlns:xlink="http://www.w3.org/1999/xlink" x="0px" y="0px"
	 width="172.7px" height="355.7px" viewBox="0 0 172.7 355.7" style="enable-background:new 0 0 172.7 355.7;" xml:space="preserve"
	>
<style type="text/css">
	.st0{fill:#C0AEE8;}
</style>
<g>
	<path class="st0" d="M107.3,355.7c-21,0-41.8,0-62.8,0c0-0.6,0-1.2,0-1.8c0-54.3,0-108.6,0-162.9c0-0.6,0-1.1,0-1.7
		c0-1.3-0.4-1.6-1.7-1.6c-13.7,0-27.4,0-41.1,0c-0.6,0-1.1,0-1.7,0c0-19.8,0-39.4,0-59.3c0.5,0,0.9,0,1.4,0c13.8,0,27.5,0,41.3,0
		c1.6,0,1.9-0.3,1.9-1.9c0-16.4,0-32.8,0-49.2c0-3.4,0.4-6.9,0.8-10.3c0.3-2.6,0.8-5.2,1.4-7.8c0.6-2.8,1.4-5.7,2.2-8.5
		c0.2-0.6,0.6-1.2,0.9-1.8c0.1-0.2,0.3-0.5,0.4-0.7c0.5-1.2,1-2.4,1.4-3.6c0.4-1.1,0.8-2.2,1.2-3.3c0.6-1.9,1.4-3.7,2.7-5.2
		c1-1.2,1.6-2.8,2.5-4.1c1.4-2,2.5-4.3,4.3-6c1-0.9,1.6-2.3,2.7-3.2c1.4-1.3,2.3-3,4.1-3.9c1-0.5,1.8-1.4,2.7-2.2
		c1.4-1.1,2.6-2.6,4.1-3.3c1.9-0.8,3.5-2.2,5.4-2.9c1.6-0.6,2.9-1.8,4.4-2.6c0.6-0.4,1.4-0.5,2-0.8c1.7-0.7,3.3-1.5,5-2.1
		c0.6-0.2,1.3-0.3,2-0.4c1.3-0.3,2.5-0.6,3.8-1c1.4-0.4,2.8-0.8,4.2-1.2c0,0,0.1,0,0.1,0c1.6-0.3,3.3-0.6,5-0.8
		c2.6-0.3,5.3-0.3,7.8-1c1.8-0.5,3.5-0.4,5.3-0.5c5.7-0.1,11.4-0.1,17.1,0c6.6,0.1,13.2,0.2,19.8,0.9c2.8,0.3,5.7,0.1,8.5,0.7
		c1.8,0.4,3.7,0.5,5.5,0.6c0.3,0,0.7,0.6,0.8,0.9c0.1,1.1,0,2.2,0,3.4c0,16.2,0,32.3,0,48.5c0,0.5,0,0.9,0,1.6
		c-0.7,0-1.2,0.1-1.8,0.1c-12,0-23.9,0-35.9,0c-2.3,0-4.5,0.2-6.8,0.5c-2,0.3-4,0.7-5.8,1.5c-2.2,1-4.5,2-6.3,3.8
		c-1.1,1.1-2.4,2-3.6,3.1c-0.5,0.5-0.9,1.2-1.2,1.8c-0.9,1.7-1.7,3.4-2.6,5.2c0,0.1,0,0.2,0,0.2c-0.2,1.1-0.5,2.1-0.6,3.2
		c-0.3,3.7-0.8,7.5-0.8,11.3c-0.1,13,0,26.1,0,39.1c0,1.6,0.5,2,2,2c20.3,0,40.5,0,60.8,0c1.8,0,2.4,1,1.7,2.7
		c-0.2,0.5-0.3,1.1-0.4,1.6c-0.1,4.4-0.1,8.7-0.2,13.1c-0.1,4.6,0,9.2-0.6,13.8c-0.7,5.5-0.1,10.9-0.7,16.3
		c-0.4,3.2-0.3,6.3-0.6,9.5c-0.1,0.7-0.4,1.4-0.7,2.3c-0.3,0-0.8,0-1.3,0c-19.3,0-38.7,0-58,0c-1.6,0-2,0.5-2,2
		c0,54.8,0,109.5,0,164.3C107.3,354.6,107.3,355.1,107.3,355.7z"/>
</g>
</svg>
