<svg width="40" height="40" viewBox="0 0 40 40" fill="none" xmlns="http://www.w3.org/2000/svg">
<g filter="url(#filter0_i_1325_118664)">
<rect width="40" height="40" rx="20" fill="#375DFB"/>
<rect width="40" height="40" rx="20" fill="white" fill-opacity="0.1"/>
<path d="M12.4966 30.3251C11.7566 29.8461 10.9858 29.1695 10.386 28.4723C10.2 28.2561 10 28.0029 10 27.9837C10 27.9727 10.2336 27.7084 10.315 27.6274C10.3192 27.6232 10.4237 27.5085 10.5472 27.3724C10.6708 27.2363 10.7999 27.0945 10.834 27.0574C11.1657 26.6967 12.0249 25.7496 12.0249 25.7448C12.0249 25.7413 11.9698 25.6626 11.9024 25.5698C10.9562 24.2678 10.3241 22.6875 10.1064 21.0801C10.0357 20.5582 10.0233 20.3561 10.0234 19.7226C10.0234 19.1088 10.0311 18.968 10.091 18.4777C10.1874 17.6882 10.3903 16.8749 10.6748 16.1378C11.5261 13.9316 13.1094 12.1148 15.1898 10.9569C15.3646 10.8596 15.8523 10.6229 16.0748 10.5274C16.4779 10.3543 16.9241 10.1991 17.3797 10.0736C17.552 10.0262 17.6477 10.0026 17.8522 9.95713C17.8935 9.94797 17.9407 9.93737 17.9572 9.93358C18.0285 9.91719 18.2884 9.86801 18.338 9.86152C18.3678 9.85762 18.4597 9.84426 18.5422 9.83183C18.8272 9.78889 19.1313 9.75743 19.4497 9.73792C19.791 9.71702 20.6425 9.72762 20.817 9.75496C20.8363 9.75798 20.9161 9.76496 20.9943 9.77046C21.0725 9.77595 21.14 9.78246 21.1443 9.78491C21.1486 9.78736 21.1926 9.79359 21.2421 9.79875C21.2916 9.80392 21.3456 9.81073 21.3621 9.81389C21.3786 9.81706 21.4259 9.82408 21.4671 9.8295C21.7572 9.86761 22.3641 9.99449 22.6896 10.0851C22.9875 10.168 23.543 10.3559 23.6906 10.4237C23.7256 10.4398 23.7574 10.453 23.7612 10.453C23.7695 10.453 24.0567 10.5749 24.1745 10.6284C24.4473 10.7523 24.8346 10.9563 25.1325 11.1331C25.2409 11.1974 25.2769 11.2124 25.29 11.1984C25.2994 11.1884 25.3745 11.1061 25.457 11.0155C25.5395 10.9249 25.6373 10.8177 25.6745 10.7773C25.7116 10.7369 25.7487 10.6962 25.757 10.6869C25.7816 10.659 26.0667 10.3461 26.1395 10.2672C26.1766 10.2269 26.2137 10.1863 26.222 10.1769C26.2302 10.1676 26.3044 10.0858 26.3869 9.99528C26.4694 9.90472 26.5437 9.8232 26.5519 9.81412C26.5602 9.80504 26.6277 9.73092 26.7019 9.64941C26.7762 9.5679 26.9077 9.42342 26.9941 9.32835C27.0805 9.23328 27.1852 9.12051 27.2266 9.07776L27.3019 9.00003L27.5466 9.16377C27.6812 9.25382 27.8831 9.39679 27.9952 9.48149C28.1073 9.56618 28.2169 9.64898 28.2387 9.66548C28.3511 9.75043 28.6516 10.0095 28.8277 10.1734C29.1775 10.4989 29.5266 10.8724 29.8288 11.2443L29.9538 11.3982L29.9253 11.4318C29.9096 11.4503 29.8933 11.4688 29.889 11.4729C29.8847 11.477 29.7801 11.5918 29.6565 11.7279C29.533 11.864 29.4284 11.9788 29.424 11.9829C29.4197 11.987 29.3151 12.1018 29.1915 12.2379C29.068 12.374 28.9634 12.4888 28.9591 12.4929C28.9547 12.497 28.8501 12.6118 28.7266 12.7479C28.603 12.884 28.4984 12.9987 28.4941 13.0029C28.4897 13.007 28.3851 13.1217 28.2615 13.2579C28.138 13.394 28.015 13.529 27.9882 13.5578C27.9614 13.5867 27.9421 13.6174 27.9453 13.626C27.9485 13.6346 28.0148 13.7291 28.0927 13.836C29.1766 15.3233 29.8122 17.0411 29.9739 18.9202C30.0051 19.2827 30.0092 20.0988 29.9815 20.4351C29.8716 21.7716 29.5611 22.9264 28.9976 24.095C28.5209 25.0834 27.8815 25.9766 27.0699 26.7877C25.9489 27.9082 24.667 28.7003 23.1546 29.2072C22.9147 29.2876 22.853 29.3057 22.5021 29.3987C22.2927 29.4542 21.7304 29.5721 21.6161 29.5845C21.5684 29.5896 21.5253 29.5963 21.5205 29.5992C21.512 29.6045 21.0776 29.6586 20.9271 29.6731C20.4938 29.715 19.3892 29.7167 19.1347 29.6758C19.1141 29.6725 19.0432 29.6654 18.9772 29.66C18.8725 29.6514 18.3237 29.5754 18.2197 29.5551C18.1991 29.551 18.1485 29.5408 18.1072 29.5323C18.066 29.5238 18.0154 29.5137 17.9947 29.5099C17.8176 29.4767 17.4673 29.3908 17.2073 29.3168C16.9039 29.2305 16.3605 29.0375 16.1339 28.9358C16.0973 28.9193 16.0167 28.884 15.9548 28.8573C15.8185 28.7985 15.3697 28.5782 15.2348 28.5039C15.1094 28.4348 14.7417 28.218 14.7014 28.1894C14.6719 28.1684 14.626 28.2164 13.6521 29.2849C13.0919 29.8995 12.6296 30.4023 12.6247 30.4023C12.6198 30.4023 12.5621 30.3676 12.4966 30.3251ZM15.4457 27.3199C15.8513 26.8744 16.2112 26.4795 16.2455 26.4424C16.2798 26.4053 16.4041 26.2693 16.5217 26.1403L16.7354 25.9057L16.8738 25.9756C17.2254 26.1532 17.6846 26.3362 18.011 26.4287C18.0474 26.439 18.084 26.4495 18.0922 26.452C18.1005 26.4545 18.1477 26.4671 18.1972 26.4801C18.2467 26.493 18.299 26.5066 18.3135 26.5105C18.4011 26.5336 18.4327 26.5408 18.6022 26.5756C18.6847 26.5925 18.7792 26.6104 18.8122 26.6154C18.8452 26.6203 18.8885 26.627 18.9083 26.6303C18.9282 26.6336 18.9754 26.6405 19.0133 26.6457C19.0512 26.6508 19.0991 26.6578 19.1197 26.6611C19.1403 26.6644 19.1977 26.6711 19.2472 26.6761C19.2967 26.6811 19.3574 26.6883 19.3822 26.6922C19.4682 26.7056 20.3731 26.7096 20.5221 26.6974C20.8383 26.6713 21.0527 26.6431 21.3321 26.591C21.5014 26.5595 21.7828 26.4953 21.8496 26.473C21.8702 26.4661 21.9276 26.4489 21.9771 26.4348C22.7393 26.2173 23.5656 25.8051 24.1961 25.328C24.7101 24.939 25.2317 24.4163 25.6211 23.9C26.7223 22.4398 27.1983 20.5583 26.9333 18.7137C26.8245 17.9563 26.5928 17.2215 26.2519 16.5525C26.1569 16.3662 25.9785 16.0534 25.8941 15.9254L25.8678 15.8855L26.8081 14.8529C27.3253 14.285 27.7791 13.7885 27.8165 13.7496C27.8975 13.6657 27.8998 13.6756 27.7511 13.4679C27.3427 12.8969 26.7786 12.3178 26.222 11.8978C25.9564 11.6975 25.5916 11.4651 25.3319 11.3307L25.2218 11.2737L25.1801 11.3171C25.1571 11.3409 24.7148 11.8262 24.1971 12.3954C23.6794 12.9646 23.2436 13.4432 23.2287 13.459C23.202 13.4871 23.1993 13.4865 23.0843 13.4309C22.8888 13.3363 22.8238 13.3068 22.6558 13.2362C22.401 13.1291 21.9201 12.9721 21.7296 12.9338C21.709 12.9297 21.6415 12.9135 21.5796 12.8979C21.5177 12.8823 21.4502 12.8664 21.4296 12.8626C21.409 12.8588 21.3347 12.8451 21.2646 12.8322C21.1217 12.8057 21.077 12.7985 20.9796 12.786C20.9425 12.7812 20.8885 12.7742 20.8596 12.7703C20.5806 12.7334 20.3088 12.7208 19.9222 12.7269C19.5114 12.7334 19.4592 12.7365 19.1722 12.771C18.9065 12.8029 18.6003 12.8585 18.3397 12.9219C18.0914 12.9824 18.1067 12.978 17.8072 13.0759C17.1063 13.305 16.4215 13.6603 15.8423 14.0952C14.3839 15.1904 13.415 16.7626 13.1139 18.5227C13.036 18.978 13.0226 19.1533 13.0231 19.7152C13.0237 20.2767 13.036 20.4383 13.1144 20.9076C13.2492 21.7147 13.561 22.5688 13.9755 23.2665L14.0982 23.473L14.0403 23.5369C13.9711 23.6132 13.7187 23.8903 13.6972 23.9136C13.6889 23.9226 13.5809 24.0414 13.4572 24.1775C13.3336 24.3136 13.2289 24.4284 13.2246 24.4325C13.2203 24.4366 13.1156 24.5514 12.9921 24.6875C12.8685 24.8236 12.7639 24.9384 12.7596 24.9425C12.7553 24.9466 12.6508 25.0614 12.5275 25.1975C12.4041 25.3336 12.2683 25.4821 12.2257 25.5275C12.1208 25.6391 12.0699 25.7015 12.0699 25.7184C12.0699 25.7371 12.2556 26.0068 12.3975 26.1942C12.7711 26.6875 13.2943 27.2029 13.8099 27.5854C13.9585 27.6957 14.3706 27.9724 14.3862 27.9724C14.3891 27.9724 14.4547 28.0095 14.5319 28.0549C14.6091 28.1003 14.6805 28.1358 14.6904 28.1337C14.7003 28.1316 15.0402 27.7654 15.4457 27.3199Z" fill="url(#paint0_linear_1325_118664)"/>
<path d="M12.4966 30.3251C11.7566 29.8461 10.9858 29.1695 10.386 28.4723C10.2 28.2561 10 28.0029 10 27.9837C10 27.9727 10.2336 27.7084 10.315 27.6274C10.3192 27.6232 10.4237 27.5085 10.5472 27.3724C10.6708 27.2363 10.7999 27.0945 10.834 27.0574C11.1657 26.6967 12.0249 25.7496 12.0249 25.7448C12.0249 25.7413 11.9698 25.6626 11.9024 25.5698C10.9562 24.2678 10.3241 22.6875 10.1064 21.0801C10.0357 20.5582 10.0233 20.3561 10.0234 19.7226C10.0234 19.1088 10.0311 18.968 10.091 18.4777C10.1874 17.6882 10.3903 16.8749 10.6748 16.1378C11.5261 13.9316 13.1094 12.1148 15.1898 10.9569C15.3646 10.8596 15.8523 10.6229 16.0748 10.5274C16.4779 10.3543 16.9241 10.1991 17.3797 10.0736C17.552 10.0262 17.6477 10.0026 17.8522 9.95713C17.8935 9.94797 17.9407 9.93737 17.9572 9.93358C18.0285 9.91719 18.2884 9.86801 18.338 9.86152C18.3678 9.85762 18.4597 9.84426 18.5422 9.83183C18.8272 9.78889 19.1313 9.75743 19.4497 9.73792C19.791 9.71702 20.6425 9.72762 20.817 9.75496C20.8363 9.75798 20.9161 9.76496 20.9943 9.77046C21.0725 9.77595 21.14 9.78246 21.1443 9.78491C21.1486 9.78736 21.1926 9.79359 21.2421 9.79875C21.2916 9.80392 21.3456 9.81073 21.3621 9.81389C21.3786 9.81706 21.4259 9.82408 21.4671 9.8295C21.7572 9.86761 22.3641 9.99449 22.6896 10.0851C22.9875 10.168 23.543 10.3559 23.6906 10.4237C23.7256 10.4398 23.7574 10.453 23.7612 10.453C23.7695 10.453 24.0567 10.5749 24.1745 10.6284C24.4473 10.7523 24.8346 10.9563 25.1325 11.1331C25.2409 11.1974 25.2769 11.2124 25.29 11.1984C25.2994 11.1884 25.3745 11.1061 25.457 11.0155C25.5395 10.9249 25.6373 10.8177 25.6745 10.7773C25.7116 10.7369 25.7487 10.6962 25.757 10.6869C25.7816 10.659 26.0667 10.3461 26.1395 10.2672C26.1766 10.2269 26.2137 10.1863 26.222 10.1769C26.2302 10.1676 26.3044 10.0858 26.3869 9.99528C26.4694 9.90472 26.5437 9.8232 26.5519 9.81412C26.5602 9.80504 26.6277 9.73092 26.7019 9.64941C26.7762 9.5679 26.9077 9.42342 26.9941 9.32835C27.0805 9.23328 27.1852 9.12051 27.2266 9.07776L27.3019 9.00003L27.5466 9.16377C27.6812 9.25382 27.8831 9.39679 27.9952 9.48149C28.1073 9.56618 28.2169 9.64898 28.2387 9.66548C28.3511 9.75043 28.6516 10.0095 28.8277 10.1734C29.1775 10.4989 29.5266 10.8724 29.8288 11.2443L29.9538 11.3982L29.9253 11.4318C29.9096 11.4503 29.8933 11.4688 29.889 11.4729C29.8847 11.477 29.7801 11.5918 29.6565 11.7279C29.533 11.864 29.4284 11.9788 29.424 11.9829C29.4197 11.987 29.3151 12.1018 29.1915 12.2379C29.068 12.374 28.9634 12.4888 28.9591 12.4929C28.9547 12.497 28.8501 12.6118 28.7266 12.7479C28.603 12.884 28.4984 12.9987 28.4941 13.0029C28.4897 13.007 28.3851 13.1217 28.2615 13.2579C28.138 13.394 28.015 13.529 27.9882 13.5578C27.9614 13.5867 27.9421 13.6174 27.9453 13.626C27.9485 13.6346 28.0148 13.7291 28.0927 13.836C29.1766 15.3233 29.8122 17.0411 29.9739 18.9202C30.0051 19.2827 30.0092 20.0988 29.9815 20.4351C29.8716 21.7716 29.5611 22.9264 28.9976 24.095C28.5209 25.0834 27.8815 25.9766 27.0699 26.7877C25.9489 27.9082 24.667 28.7003 23.1546 29.2072C22.9147 29.2876 22.853 29.3057 22.5021 29.3987C22.2927 29.4542 21.7304 29.5721 21.6161 29.5845C21.5684 29.5896 21.5253 29.5963 21.5205 29.5992C21.512 29.6045 21.0776 29.6586 20.9271 29.6731C20.4938 29.715 19.3892 29.7167 19.1347 29.6758C19.1141 29.6725 19.0432 29.6654 18.9772 29.66C18.8725 29.6514 18.3237 29.5754 18.2197 29.5551C18.1991 29.551 18.1485 29.5408 18.1072 29.5323C18.066 29.5238 18.0154 29.5137 17.9947 29.5099C17.8176 29.4767 17.4673 29.3908 17.2073 29.3168C16.9039 29.2305 16.3605 29.0375 16.1339 28.9358C16.0973 28.9193 16.0167 28.884 15.9548 28.8573C15.8185 28.7985 15.3697 28.5782 15.2348 28.5039C15.1094 28.4348 14.7417 28.218 14.7014 28.1894C14.6719 28.1684 14.626 28.2164 13.6521 29.2849C13.0919 29.8995 12.6296 30.4023 12.6247 30.4023C12.6198 30.4023 12.5621 30.3676 12.4966 30.3251ZM15.4457 27.3199C15.8513 26.8744 16.2112 26.4795 16.2455 26.4424C16.2798 26.4053 16.4041 26.2693 16.5217 26.1403L16.7354 25.9057L16.8738 25.9756C17.2254 26.1532 17.6846 26.3362 18.011 26.4287C18.0474 26.439 18.084 26.4495 18.0922 26.452C18.1005 26.4545 18.1477 26.4671 18.1972 26.4801C18.2467 26.493 18.299 26.5066 18.3135 26.5105C18.4011 26.5336 18.4327 26.5408 18.6022 26.5756C18.6847 26.5925 18.7792 26.6104 18.8122 26.6154C18.8452 26.6203 18.8885 26.627 18.9083 26.6303C18.9282 26.6336 18.9754 26.6405 19.0133 26.6457C19.0512 26.6508 19.0991 26.6578 19.1197 26.6611C19.1403 26.6644 19.1977 26.6711 19.2472 26.6761C19.2967 26.6811 19.3574 26.6883 19.3822 26.6922C19.4682 26.7056 20.3731 26.7096 20.5221 26.6974C20.8383 26.6713 21.0527 26.6431 21.3321 26.591C21.5014 26.5595 21.7828 26.4953 21.8496 26.473C21.8702 26.4661 21.9276 26.4489 21.9771 26.4348C22.7393 26.2173 23.5656 25.8051 24.1961 25.328C24.7101 24.939 25.2317 24.4163 25.6211 23.9C26.7223 22.4398 27.1983 20.5583 26.9333 18.7137C26.8245 17.9563 26.5928 17.2215 26.2519 16.5525C26.1569 16.3662 25.9785 16.0534 25.8941 15.9254L25.8678 15.8855L26.8081 14.8529C27.3253 14.285 27.7791 13.7885 27.8165 13.7496C27.8975 13.6657 27.8998 13.6756 27.7511 13.4679C27.3427 12.8969 26.7786 12.3178 26.222 11.8978C25.9564 11.6975 25.5916 11.4651 25.3319 11.3307L25.2218 11.2737L25.1801 11.3171C25.1571 11.3409 24.7148 11.8262 24.1971 12.3954C23.6794 12.9646 23.2436 13.4432 23.2287 13.459C23.202 13.4871 23.1993 13.4865 23.0843 13.4309C22.8888 13.3363 22.8238 13.3068 22.6558 13.2362C22.401 13.1291 21.9201 12.9721 21.7296 12.9338C21.709 12.9297 21.6415 12.9135 21.5796 12.8979C21.5177 12.8823 21.4502 12.8664 21.4296 12.8626C21.409 12.8588 21.3347 12.8451 21.2646 12.8322C21.1217 12.8057 21.077 12.7985 20.9796 12.786C20.9425 12.7812 20.8885 12.7742 20.8596 12.7703C20.5806 12.7334 20.3088 12.7208 19.9222 12.7269C19.5114 12.7334 19.4592 12.7365 19.1722 12.771C18.9065 12.8029 18.6003 12.8585 18.3397 12.9219C18.0914 12.9824 18.1067 12.978 17.8072 13.0759C17.1063 13.305 16.4215 13.6603 15.8423 14.0952C14.3839 15.1904 13.415 16.7626 13.1139 18.5227C13.036 18.978 13.0226 19.1533 13.0231 19.7152C13.0237 20.2767 13.036 20.4383 13.1144 20.9076C13.2492 21.7147 13.561 22.5688 13.9755 23.2665L14.0982 23.473L14.0403 23.5369C13.9711 23.6132 13.7187 23.8903 13.6972 23.9136C13.6889 23.9226 13.5809 24.0414 13.4572 24.1775C13.3336 24.3136 13.2289 24.4284 13.2246 24.4325C13.2203 24.4366 13.1156 24.5514 12.9921 24.6875C12.8685 24.8236 12.7639 24.9384 12.7596 24.9425C12.7553 24.9466 12.6508 25.0614 12.5275 25.1975C12.4041 25.3336 12.2683 25.4821 12.2257 25.5275C12.1208 25.6391 12.0699 25.7015 12.0699 25.7184C12.0699 25.7371 12.2556 26.0068 12.3975 26.1942C12.7711 26.6875 13.2943 27.2029 13.8099 27.5854C13.9585 27.6957 14.3706 27.9724 14.3862 27.9724C14.3891 27.9724 14.4547 28.0095 14.5319 28.0549C14.6091 28.1003 14.6805 28.1358 14.6904 28.1337C14.7003 28.1316 15.0402 27.7654 15.4457 27.3199Z" fill="url(#paint1_linear_1325_118664)"/>
<path d="M12.4966 30.3251C11.7566 29.8461 10.9858 29.1694 10.386 28.4722C10.2 28.256 10 28.0029 10 27.9837C10 27.9727 10.2336 27.7084 10.315 27.6273C10.3192 27.6232 10.4237 27.5085 10.5472 27.3723C10.6708 27.2362 10.7999 27.0945 10.834 27.0574C11.1657 26.6967 12.0249 25.7496 12.0249 25.7447C12.0249 25.7413 11.9698 25.6625 11.9024 25.5698C10.9562 24.2678 10.3241 22.6874 10.1064 21.0801C10.0357 20.5582 10.0233 20.356 10.0234 19.7226C10.0234 19.1088 10.0311 18.968 10.091 18.4776C10.1874 17.6881 10.3903 16.8749 10.6748 16.1377C11.5261 13.9315 13.1094 12.1147 15.1898 10.9568C15.3646 10.8596 15.8523 10.6229 16.0748 10.5273C16.4779 10.3543 16.9241 10.1991 17.3797 10.0736C17.552 10.0261 17.6477 10.0025 17.8522 9.9571C17.8935 9.94794 17.9407 9.93734 17.9572 9.93355C18.0285 9.91716 18.2884 9.86798 18.338 9.86149C18.3678 9.85759 18.4597 9.84423 18.5422 9.8318C18.8272 9.78885 19.1313 9.7574 19.4497 9.73789C19.791 9.71699 20.6425 9.72759 20.817 9.75493C20.8363 9.75795 20.9161 9.76493 20.9943 9.77043C21.0725 9.77592 21.14 9.78243 21.1443 9.78488C21.1486 9.78733 21.1926 9.79356 21.2421 9.79872C21.2916 9.80389 21.3456 9.8107 21.3621 9.81386C21.3786 9.81702 21.4259 9.82405 21.4671 9.82947C21.7572 9.86757 22.3641 9.99446 22.6896 10.085C22.9875 10.168 23.543 10.3559 23.6906 10.4237C23.7256 10.4398 23.7574 10.4529 23.7612 10.4529C23.7695 10.4529 24.0567 10.5748 24.1745 10.6283C24.4473 10.7523 24.8346 10.9563 25.1325 11.1331C25.2409 11.1974 25.2769 11.2123 25.29 11.1984C25.2994 11.1884 25.3745 11.1061 25.457 11.0155C25.5395 10.9249 25.6373 10.8177 25.6745 10.7773C25.7116 10.7369 25.7487 10.6962 25.757 10.6869C25.7816 10.659 26.0667 10.3461 26.1395 10.2671C26.1766 10.2268 26.2137 10.1862 26.222 10.1769C26.2302 10.1676 26.3044 10.0858 26.3869 9.99525C26.4694 9.90469 26.5437 9.82317 26.5519 9.81409C26.5602 9.80501 26.6277 9.73089 26.7019 9.64938C26.7762 9.56787 26.9077 9.42339 26.9941 9.32832C27.0805 9.23325 27.1852 9.12048 27.2266 9.07773L27.3019 9L27.5466 9.16373C27.6812 9.25379 27.8831 9.39676 27.9952 9.48146C28.1073 9.56615 28.2169 9.64895 28.2387 9.66545C28.3511 9.7504 28.6516 10.0095 28.8277 10.1734C29.1775 10.4989 29.5266 10.8724 29.8288 11.2443L29.9538 11.3981L29.9253 11.4318C29.9096 11.4503 29.8933 11.4688 29.889 11.4729C29.8847 11.477 29.7801 11.5918 29.6565 11.7279C29.533 11.864 29.4284 11.9787 29.424 11.9829C29.4197 11.987 29.3151 12.1017 29.1915 12.2379C29.068 12.374 28.9634 12.4887 28.9591 12.4928C28.9547 12.497 28.8501 12.6117 28.7266 12.7478C28.603 12.884 28.4984 12.9987 28.4941 13.0028C28.4897 13.007 28.3851 13.1217 28.2615 13.2578C28.138 13.3939 28.015 13.5289 27.9882 13.5578C27.9614 13.5867 27.9421 13.6174 27.9453 13.626C27.9485 13.6346 28.0148 13.7291 28.0927 13.836C29.1766 15.3233 29.8122 17.0411 29.9739 18.9201C30.0051 19.2826 30.0092 20.0987 29.9815 20.4351C29.8716 21.7716 29.5611 22.9264 28.9976 24.095C28.5209 25.0834 27.8815 25.9766 27.0699 26.7877C25.9489 27.9082 24.667 28.7003 23.1546 29.2072C22.9147 29.2876 22.853 29.3057 22.5021 29.3987C22.2927 29.4542 21.7304 29.5721 21.6161 29.5844C21.5684 29.5896 21.5253 29.5962 21.5205 29.5992C21.512 29.6045 21.0776 29.6585 20.9271 29.6731C20.4938 29.715 19.3892 29.7167 19.1347 29.6758C19.1141 29.6725 19.0432 29.6654 18.9772 29.6599C18.8725 29.6513 18.3237 29.5753 18.2197 29.555C18.1991 29.551 18.1485 29.5408 18.1072 29.5323C18.066 29.5238 18.0154 29.5137 17.9947 29.5098C17.8176 29.4767 17.4673 29.3908 17.2073 29.3168C16.9039 29.2304 16.3605 29.0375 16.1339 28.9357C16.0973 28.9193 16.0167 28.884 15.9548 28.8573C15.8185 28.7985 15.3697 28.5781 15.2348 28.5038C15.1094 28.4347 14.7417 28.2179 14.7014 28.1894C14.6719 28.1684 14.626 28.2163 13.6521 29.2848C13.0919 29.8994 12.6296 30.4023 12.6247 30.4023C12.6198 30.4023 12.5621 30.3675 12.4966 30.3251ZM15.4457 27.3198C15.8513 26.8744 16.2112 26.4795 16.2455 26.4424C16.2798 26.4053 16.4041 26.2693 16.5217 26.1403L16.7354 25.9057L16.8738 25.9756C17.2254 26.1532 17.6846 26.3362 18.011 26.4287C18.0474 26.439 18.084 26.4495 18.0922 26.452C18.1005 26.4545 18.1477 26.4671 18.1972 26.48C18.2467 26.4929 18.299 26.5066 18.3135 26.5104C18.4011 26.5336 18.4327 26.5407 18.6022 26.5756C18.6847 26.5925 18.7792 26.6104 18.8122 26.6153C18.8452 26.6203 18.8885 26.627 18.9083 26.6303C18.9282 26.6336 18.9754 26.6405 19.0133 26.6456C19.0512 26.6508 19.0991 26.6577 19.1197 26.661C19.1403 26.6643 19.1977 26.6711 19.2472 26.6761C19.2967 26.6811 19.3574 26.6883 19.3822 26.6922C19.4682 26.7055 20.3731 26.7096 20.5221 26.6973C20.8383 26.6712 21.0527 26.6431 21.3321 26.591C21.5014 26.5595 21.7828 26.4953 21.8496 26.473C21.8702 26.4661 21.9276 26.4489 21.9771 26.4348C22.7393 26.2172 23.5656 25.8051 24.1961 25.328C24.7101 24.939 25.2317 24.4163 25.6211 23.9C26.7223 22.4397 27.1983 20.5582 26.9333 18.7136C26.8245 17.9563 26.5928 17.2215 26.2519 16.5525C26.1569 16.3662 25.9785 16.0534 25.8941 15.9254L25.8678 15.8855L26.8081 14.8529C27.3253 14.285 27.7791 13.7885 27.8165 13.7496C27.8975 13.6657 27.8998 13.6756 27.7511 13.4678C27.3427 12.8968 26.7786 12.3177 26.222 11.8978C25.9564 11.6975 25.5916 11.465 25.3319 11.3306L25.2218 11.2737L25.1801 11.317C25.1571 11.3409 24.7148 11.8261 24.1971 12.3954C23.6794 12.9646 23.2436 13.4432 23.2287 13.459C23.202 13.487 23.1993 13.4865 23.0843 13.4309C22.8888 13.3363 22.8238 13.3068 22.6558 13.2362C22.401 13.1291 21.9201 12.9721 21.7296 12.9338C21.709 12.9296 21.6415 12.9135 21.5796 12.8979C21.5177 12.8822 21.4502 12.8664 21.4296 12.8626C21.409 12.8588 21.3347 12.8451 21.2646 12.8321C21.1217 12.8057 21.077 12.7984 20.9796 12.7859C20.9425 12.7812 20.8885 12.7741 20.8596 12.7703C20.5806 12.7334 20.3088 12.7208 19.9222 12.7269C19.5114 12.7334 19.4592 12.7365 19.1722 12.771C18.9065 12.8029 18.6003 12.8584 18.3397 12.9219C18.0914 12.9824 18.1067 12.9779 17.8072 13.0758C17.1063 13.305 16.4215 13.6603 15.8423 14.0952C14.3839 15.1904 13.415 16.7626 13.1139 18.5227C13.036 18.978 13.0226 19.1532 13.0231 19.7151C13.0237 20.2767 13.036 20.4383 13.1144 20.9076C13.2492 21.7147 13.561 22.5688 13.9755 23.2665L14.0982 23.473L14.0403 23.5369C13.9711 23.6132 13.7187 23.8902 13.6972 23.9136C13.6889 23.9226 13.5809 24.0414 13.4572 24.1775C13.3336 24.3136 13.2289 24.4283 13.2246 24.4325C13.2203 24.4366 13.1156 24.5513 12.9921 24.6875C12.8685 24.8236 12.7639 24.9383 12.7596 24.9425C12.7553 24.9466 12.6508 25.0613 12.5275 25.1974C12.4041 25.3336 12.2683 25.4821 12.2257 25.5274C12.1208 25.6391 12.0699 25.7015 12.0699 25.7184C12.0699 25.737 12.2556 26.0067 12.3975 26.1941C12.7711 26.6875 13.2943 27.2029 13.8099 27.5853C13.9585 27.6956 14.3706 27.9724 14.3862 27.9724C14.3891 27.9724 14.4547 28.0095 14.5319 28.0549C14.6091 28.1003 14.6805 28.1357 14.6904 28.1336C14.7003 28.1316 15.0402 27.7653 15.4457 27.3198Z" fill="url(#paint2_linear_1325_118664)"/>
</g>
<defs>
<filter id="filter0_i_1325_118664" x="0" y="-4" width="40" height="44" filterUnits="userSpaceOnUse" color-interpolation-filters="sRGB">
<feFlood flood-opacity="0" result="BackgroundImageFix"/>
<feBlend mode="normal" in="SourceGraphic" in2="BackgroundImageFix" result="shape"/>
<feColorMatrix in="SourceAlpha" type="matrix" values="0 0 0 0 0 0 0 0 0 0 0 0 0 0 0 0 0 0 127 0" result="hardAlpha"/>
<feOffset dy="-4"/>
<feGaussianBlur stdDeviation="4"/>
<feComposite in2="hardAlpha" operator="arithmetic" k2="-1" k3="1"/>
<feColorMatrix type="matrix" values="0 0 0 0 1 0 0 0 0 1 0 0 0 0 1 0 0 0 0.64 0"/>
<feBlend mode="normal" in2="shape" result="effect1_innerShadow_1325_118664"/>
</filter>
<linearGradient id="paint0_linear_1325_118664" x1="26.8951" y1="9.90689" x2="9.2688" y2="32.8418" gradientUnits="userSpaceOnUse">
<stop stop-color="white"/>
<stop offset="1" stop-color="white" stop-opacity="0"/>
</linearGradient>
<linearGradient id="paint1_linear_1325_118664" x1="26.8951" y1="9.90689" x2="9.2688" y2="32.8418" gradientUnits="userSpaceOnUse">
<stop stop-color="white"/>
<stop offset="1" stop-color="white" stop-opacity="0"/>
</linearGradient>
<linearGradient id="paint2_linear_1325_118664" x1="26.8951" y1="9.90686" x2="9.2688" y2="32.8418" gradientUnits="userSpaceOnUse">
<stop stop-color="white"/>
<stop offset="1" stop-color="white" stop-opacity="0"/>
</linearGradient>
</defs>
</svg>
