<?xml version="1.0" encoding="utf-8"?>
<!-- Generator: Adobe Illustrator 25.2.1, SVG Export Plug-In . SVG Version: 6.00 Build 0)  -->
<svg version="1.1" id="Layer_1" xmlns="http://www.w3.org/2000/svg" xmlns:xlink="http://www.w3.org/1999/xlink" x="0px" y="0px"
	 width="1254.1px" height="295.3px" viewBox="0 0 1254.1 295.3" style="enable-background:new 0 0 1254.1 295.3;"
	 xml:space="preserve">
<style type="text/css">
	.st0{fill:#FDE58B;}
</style>
<g>
	<path class="st0" d="M286.1,147.3c-0.5,34.5-16.1,67.5-44.9,94c-16.6,15.2-35.5,27.1-58,31.9c-13.2,2.8-26.2,2.5-38.6-3.5
		c-14.9-7.3-22-20.9-17.1-36.7c3-9.7,7.9-19.2,13.8-27.4c11.6-16.1,24.9-30.8,36.6-46.9c8.8-12.1,17.5-24.6,23.7-38.1
		c12.3-27.1,9.1-53.3-11.3-75.7c-9.1-10-20.3-18.2-30.5-27.2c-3.4-3-7-5.6-10-8.9c-3.3-3.6-2-7.4,2.9-8.3c3.7-0.6,7.6-0.5,11.4-0.2
		c30.6,2.5,55.4,16.7,76.7,37.9C269.7,66.9,285.2,101.4,286.1,147.3z M249.3,77.7c2.2,18.1,2.7,36.2-1.9,53.7c-5,19.3-12.1,38-18,57
		c-2.6,8.2-5.2,16.5-6.9,24.9c-0.6,2.7,0.8,7.9,2.6,8.6c2.8,1.2,7.5,0.6,10.1-1.2c4.3-3.1,8.3-7.3,11.2-11.8
		c17.6-26.8,24.6-56.2,19.1-88C262.8,105.5,257.4,91.1,249.3,77.7z"/>
	<path class="st0" d="M0,152.7c0.7-39.9,16.6-73.3,46.4-99.9c16.3-14.6,34.7-26,56.5-30.6c13.2-2.8,26.1-2.6,38.6,3.5
		c15,7.3,22.1,20.9,17.2,36.7c-3,9.7-7.8,19.2-13.8,27.5c-11.5,16.1-24.9,30.8-36.6,46.9c-8.8,12.1-17.5,24.5-23.7,38
		c-12.4,27.3-9.1,53.6,11.5,76.1c9.1,10,20.3,18.1,30.6,27.1c3.4,2.9,6.9,5.7,9.9,9c2.8,3.1,1.8,6.3-2.1,7.7
		c-1.8,0.6-3.9,0.8-5.9,0.7c-19.3-0.3-37.6-4.9-53.7-15.2C28.4,250.7,2.2,208.9,0,152.7z M37.4,218.4c-0.2-1.8-0.2-2.7-0.4-3.7
		c-2.4-17.3-2.6-34.8,1.8-51.6c5-18.9,11.9-37.4,17.8-56c2.6-8.2,5.3-16.5,7-24.9c0.6-2.9-0.8-8.1-2.8-9c-2.6-1.2-7.4-0.3-10,1.5
		c-4.1,2.9-7.8,6.9-10.6,11.1c-27.5,42.5-27.9,86.2-4.7,130.6C36,216.9,36.5,217.3,37.4,218.4z"/>
	<path class="st0" d="M443.4,64.6c10.9,0,21.4-0.1,31.8,0.1c1.5,0,3.4,1.2,4.4,2.5c22.7,29.6,45.4,59.2,67.7,89.2
		c4.8,6.4,8,14.1,11.8,21c0-37.2,0-74.7,0-112.4c10.1,0,20.3,0,31,0c0,51.7,0,103.4,0,155.7c-10.3,0-20.6,0.1-30.9-0.1
		c-1.2,0-2.6-1.3-3.5-2.4c-23.4-30.4-46.8-60.6-69.8-91.3c-4.9-6.5-8-14.4-11.6-21.1c0,37.6,0,75.9,0,114.6c-9.9,0-20.2,0-30.9,0
		C443.4,168.7,443.4,117,443.4,64.6z"/>
	<path class="st0" d="M831,129.4c23.8,0,46.6,0,69.8,0c0-21.5,0-42.8,0-64.4c11.7,0,22.9,0,34.4,0c0,53.4,0,106.7,0,160.4
		c-11.4,0-22.6,0-34.3,0c0-22.2,0-44.1,0-66.4c-23.4,0-46.2,0-69.6,0c0,22.1,0,44,0,66.3c-11.7,0-22.9,0-34.4,0
		c0-53.4,0-106.8,0-160.4c11.3,0,22.4,0,34.1,0C831,86.3,831,107.7,831,129.4z"/>
	<path class="st0" d="M1145.7,226.4c0-54.7,0-107.8,0-160.9c0.3-0.3,0.6-0.7,0.8-0.7c23.1,0.2,46.4-2.1,69.2,2.9
		c23.5,5.2,36.3,24.5,31.9,47.5c-2.3,11.8-9.8,19-20.5,23.2c-3,1.2-6.2,2.1-10.3,3.4c3.8,1,6.6,1.7,9.3,2.6
		c14.6,4.5,25.3,13,27.4,29c2.4,17.9-3.2,33.1-19.3,42.1c-7.8,4.4-17,7.5-25.8,8.2C1187.7,225.5,1166.9,225.6,1145.7,226.4z
		 M1180.6,156.3c0,14.7,0,28.4,0,42.8c8-0.5,15.7-0.4,23.1-1.7c10.8-1.8,16.3-9.5,16.2-20.6c-0.1-10.4-5.8-17.4-16.6-19.1
		C1196,156.6,1188.5,156.7,1180.6,156.3z M1180.6,90.9c0,13.7,0,26.1,0,39.6c8.5-1.1,16.7-1.4,24.5-3.2s11.5-8.3,11.3-17.2
		c-0.1-8.9-3.7-14.6-11.7-16.3C1197,92.1,1189.1,91.8,1180.6,90.9z"/>
	<path class="st0" d="M970.8,64.9c11.8,0,23.1,0,34.8,0c0,2,0,3.8,0,5.6c0,28.8-0.1,57.7,0.1,86.5c0,5.1,0.3,10.4,1.2,15.4
		c3.7,19.1,18.8,28.9,39.6,25.9c18.7-2.7,28.9-14.8,29.1-35.6c0.3-30.5,0.1-61,0.1-91.5c0-2,0-3.9,0-6.2c11.6,0,22.9,0,34.6,0
		c0.1,1.4,0.3,2.8,0.3,4.2c0,31.3,0.2,62.7-0.1,94c-0.1,8.6-1,17.4-3.1,25.7c-5.2,20.5-19.1,32.7-39.3,37.7
		c-17.7,4.4-35.7,4.4-53.5,0.2c-25.7-6.1-40.8-23.5-42.9-49.9c-0.8-10.1-0.8-20.3-0.9-30.5C970.7,119.4,970.8,92.5,970.8,64.9z"/>
	<path class="st0" d="M631.4,179.8c0.8,2.8,1.3,5.2,2.2,7.5c2.1,5.3,6,7.8,11.2,7.3c5.1-0.5,8.1-3.1,8.8-9.2
		c0.8-6.4,1.1-12.9,1.1-19.4c0.1-31.7,0-63.3,0-95c0-2,0-3.9,0-6.1c11.3,0,22.1,0,33.2,0c0.1,1.2,0.4,2.5,0.4,3.8
		c0,34.7,0.1,69.3-0.1,104c0,7-0.6,14-1.7,20.9c-2.8,16.6-13,27-29.7,29.1c-7.9,0.9-16.4,0.7-24.2-1c-14.5-3.2-21.6-14-24.5-27.9
		c-0.2-1,0.7-2.9,1.6-3.4C616.8,186.7,624,183.4,631.4,179.8z"/>
	<path class="st0" d="M374,64.9c11.1,0,21.8,0,32.9,0c0,51.9,0,103.6,0,155.6c-11,0-21.8,0-32.9,0C374,168.7,374,117,374,64.9z"/>
</g>
</svg>
