<?xml version="1.0" encoding="utf-8"?>
<!-- Generator: Adobe Illustrator 25.2.1, SVG Export Plug-In . SVG Version: 6.00 Build 0)  -->
<svg version="1.1" id="Layer_1" xmlns="http://www.w3.org/2000/svg" xmlns:xlink="http://www.w3.org/1999/xlink" x="0px" y="0px"
	 width="102.9px" height="54.9px" viewBox="0 0 102.9 54.9" style="enable-background:new 0 0 102.9 54.9;" xml:space="preserve">
<style type="text/css">
	.st0{fill:#FDE58B;}
</style>
<g>
	<path class="st0" d="M15.9,7c-3.1,0.7-5.7,1.3-8.3,2C7.2,9.2,6.9,10,6.5,10.3c-1,0.9-2.1,2.4-2.9,2.3c-1.3-0.3-3-1.4-3.5-2.6
		c-0.4-1,0.2-3.2,1-3.8c1.9-1.5,4.2-2.7,6.6-3.3c9.3-2.6,18.8-3.6,28.5-2.1C38.3,1,40,2.5,39.9,4.1C39.8,6,38.1,7,35.6,6.8
		C32.4,6.5,29.2,6,26,6c-3.4-0.1-3.8,0.3-4.1,3.7c-0.8,10.9-1.2,21.7,0.4,32.6c0.4,2.9,1.4,5.8,1.6,8.7c0.1,1.1-0.9,2.9-1.9,3.5
		c-1.7,1-3.2-0.2-3.7-1.8c-0.9-2.9-1.9-5.9-2.1-8.9c-0.6-9.9-0.8-19.7-1-29.6C15.3,11.9,15.6,9.7,15.9,7z"/>
	<path class="st0" d="M42.3,26.8c-0.4-1.8-0.3-3.3-1-4.3c-0.7-1-2.1-1.9-3.2-1.9c-0.9,0-2.3,1.3-2.6,2.3c-0.9,2.4-2.1,3.6-4,2.9
		c-1.8-0.6-2.5-2.7-1.9-4.8c1.3-4.1,4.4-6.3,8.5-6.6c3.8-0.3,6.8,1.6,8.6,4.9c0.9,1.8,1.2,3.9,1.4,6c0.7,5.7,1.4,11.5,1.9,17.3
		c0.3,3.1-0.5,4.2-3.6,4.6c-4.1,0.5-8.2,0.7-12.3,0.7c-1.1,0-2.6-1-3.2-2c-2.4-4.2-3.5-8.8-1.8-13.6c1.5-4.4,5.6-5,9.5-5.4
		C39.7,26.7,40.8,26.8,42.3,26.8z M39.6,33.1c-0.5,0-1,0-1.5,0c-3.2,0.1-4,1-3.6,4.2c0.1,0.5,0.1,1,0.2,1.5c0.5,3.5,1,3.8,4.4,3.2
		c4.6-0.8,4.5-0.8,4.3-5.5C43.1,32.7,43.2,33.1,39.6,33.1z"/>
	<path class="st0" d="M91.9,51.8c-3.8,0.3-6.9-0.7-9.6-2.9c-2.3-1.8-3.7-4.2-3-7.1c0.3-1.2,1.6-2.5,2.7-2.9c0.6-0.2,2.4,1.2,2.8,2.3
		c1.6,4.2,1.9,4.5,6.4,4.6c0.5,0,1,0.1,1.5,0c1-0.2,1.9-0.6,2.9-0.9c-0.4-1.2-0.4-2.8-1.3-3.5c-2.4-2.1-5.2-3.9-7.7-5.9
		c-3.2-2.5-5.5-5.6-5.3-9.9c0.2-4.7,4.3-9.5,9.2-10.7c4.2-1,9.1,0.8,11.2,4.2c1.8,2.9,1.7,6.3-0.5,8.8c-1.1,1.3-2.4,2.2-4.1,1.1
		c-1.6-1.1-2-2.4-0.9-4.2c1.4-2.3,0.4-3.8-2.4-3.9c-3-0.1-5.2,1-6.1,3.3c-0.9,2.1,0,4.7,2.4,6.5c2.6,2,5.4,3.9,8,6
		c2.6,2,3.9,4.8,3.7,8.1c-0.2,4-3.5,6.9-7.6,7.1C93.2,51.9,92.4,51.8,91.9,51.8z"/>
	<path class="st0" d="M54.3,32.5c0.6-7.9,1.3-15.7,1.9-23.6c0.2-2.2,1.8-3.8,3.4-3.6c1.8,0.3,3.1,2.1,2.7,4.4
		c-1.7,10.4-1.6,20.9-1.4,31.3c0.1,2.8,0.5,5.6,1,8.4c0.4,2.1-0.3,4-2.1,4.3c-2.1,0.4-3.3-0.8-3.5-2.6c-0.6-4.9-1.1-9.9-1.5-14.8
		c-0.1-1.2,0-2.5,0-3.7C54.6,32.5,54.4,32.5,54.3,32.5z"/>
	<path class="st0" d="M73.3,26.2c0,5.4,0,10.8,0,16.1c0,1.7-0.9,2.9-2.6,3c-1.9,0.2-3.3-1.2-3.3-2.8c0-5.8,0.3-11.6,0.7-17.3
		c0.1-1.9,1.4-2.8,3.3-2.6C73.3,23,73.8,24.5,73.3,26.2z"/>
	<path class="st0" d="M72.3,10.7c3,0,5,1.8,5,4.3c0,2.6-2.3,4.9-4.9,4.9c-2.5,0-4.3-2.7-4.3-6.2C68.1,11.6,69.4,10.7,72.3,10.7z"/>
</g>
</svg>
