<?xml version="1.0" encoding="utf-8"?>
<!-- Generator: Adobe Illustrator 25.2.1, SVG Export Plug-In . SVG Version: 6.00 Build 0)  -->
<svg version="1.1" id="Layer_1" xmlns="http://www.w3.org/2000/svg" xmlns:xlink="http://www.w3.org/1999/xlink" x="0px" y="0px"
	 width="1340.7px" height="412.4px" viewBox="0 0 1340.7 412.4" style="enable-background:new 0 0 1340.7 412.4;"
	 xml:space="preserve">
<style type="text/css">
	.st0{fill:#FDE58B;}
</style>
<g>
	<path class="st0" d="M878.1,206.3c0,22.2,0,44.5,0,67.1c-20.6,0-40.9,0-61.5,0c0-91,0-182,0-273.4c20.3,0,40.6,0,61.4,0
		c0,54.7,0,109.4,0,165c2.1-1.8,3.3-2.8,4.5-3.9c19.1-17.9,38.1-35.9,57.2-53.8c1.4-1.3,3.3-2.8,4.9-2.8c27-0.2,54-0.1,82.7-0.1
		c-29.8,26.6-58.4,52.2-87.5,78.1c30.7,30.2,61.2,60.1,92.3,90.7c-1.9,0.2-3.1,0.4-4.4,0.4c-26,0-52,0.1-78-0.1
		c-2.3,0-5.2-1.3-6.8-2.9c-20.1-20.2-40.1-40.5-60-60.9c-1.3-1.3-2.3-2.8-3.5-4.2C879,205.8,878.5,206.1,878.1,206.3z"/>
	<path class="st0" d="M243.7,37.9c-8.8,16.7-17.5,33.2-26.4,50c-1.9-1.3-3.5-2.4-5.1-3.5c-13.1-9-27.3-14.4-43.6-12.8
		C162,72.3,156,74.4,151,79c-8.4,7.7-8.4,20.4,0.9,26.8c6.2,4.3,13.5,7.1,20.6,9.8c13.2,5,27,8.6,39.8,14.4
		c18.6,8.3,33.2,21.2,38.8,41.8c9.7,35.9,0.4,83.7-50.8,100.9c-48.1,16.1-93.1,6.7-136-20.3c9.6-17.5,19-34.6,28.7-52.3
		c1.7,1.3,3.1,2.4,4.5,3.4c14.9,11.7,31.1,20.9,50.6,21.5c7.4,0.2,15.3-1,22.4-3.5c8.1-2.9,12.9-9.8,13.6-18.8
		c0.7-9.1-3.4-16.2-11.5-19.9c-9.8-4.6-20-8.2-30.1-12c-8.7-3.3-17.8-5.7-26.3-9.4c-33.9-14.6-44.5-39.9-40.5-72.6
		c4.8-39.7,31.5-65.3,71.5-70.1c33.5-4,64.8,3.4,94.8,18C242.4,36.8,242.8,37.2,243.7,37.9z"/>
	<path class="st0" d="M678.5,98.1c23.5,0.2,48.8,7.1,70.2,24.9c45.9,38.1,40.3,110.5-11.8,140.5c-38.5,22.2-79.4,23.1-119.2,3.6
		c-32.9-16.2-49-44.6-48.2-81.1c0.9-36.9,21.1-61.6,53.6-77.1C639.4,101,656.7,98.1,678.5,98.1z M714.2,188.5
		c0-21.2-17.7-38.5-39.6-38.6c-21.8-0.1-39.9,17.1-40,38.2c-0.2,21.8,17.7,39.4,39.9,39.4C696.6,227.4,714.3,210.1,714.2,188.5z"/>
	<path class="st0" d="M1237.4,221.8c-6.8,21.7-19,38-39,47.8c-20.9,10.2-43.2,11.6-65.9,9.6c-16.8-1.5-32.7-6.3-46.9-15.8
		c-28.4-19-39.9-46.5-37.8-79.9c0.7-11,3-22.3,7-32.5c12.2-30.8,36.9-46.1,68.6-51.3c17.9-3,35.9-2.5,53.5,2.4
		c35.4,9.9,55.1,33.8,61.1,69.5c1.5,8.8,1.6,17.8,2.4,27.3c-44,0-86.9,0-129.7,0c-3.9,20.4,10.3,37.2,32.1,38.6
		c13.4,0.9,25.1-2.5,33.5-13.8c0.8-1,2.4-1.9,3.6-1.9C1198.9,221.7,1217.7,221.8,1237.4,221.8z M1112.3,164.3c23.3,0,46.2,0,69.1,0
		c-2.2-16.6-18.8-28.5-38-27.5C1126.2,137.7,1112.7,149.5,1112.3,164.3z"/>
	<path class="st0" d="M359.3,273.5c-20.9,0-41,0-61.8,0c0-39.6,0-79.1,0-119.2c-7.1,0-13.5,0-20.1,0c0-16.8,0-33,0-49.8
		c6.6,0,13,0,19.9,0c0-17.1,0-33.7,0-50.6c20.8,0,41,0,61.7,0c0,16.6,0,33.1,0,50.3c11.9,0,23.2,0,35,0c0,16.8,0,33.1,0,50
		c-11.4,0-22.8,0-34.6,0C359.3,194.2,359.3,233.6,359.3,273.5z"/>
	<path class="st0" d="M549.5,157.3c-7.6-1.6-14.3-3.9-21.2-4.4c-30-2.5-47.6,13.3-48.1,43.6c-0.4,23.7-0.1,47.3-0.2,71
		c0,1.8,0,3.6,0,5.8c-20.6,0-41,0-61.6,0c0-56.2,0-112.3,0-168.6c20.5,0,40.7,0,61.5,0c0,8.5,0,16.9,0,26.6c2.9-3.5,4.9-6.1,7-8.5
		c15.7-18,36-23.5,58.9-21.9c1.2,0.1,3.4,2,3.4,3C549.5,121.8,549.5,139.6,549.5,157.3z"/>
	<path class="st0" d="M619.7,362.8c-6.6-10.5-6.8-17.5-0.4-21.9c5.7-3.9,14.7-2.8,18.6,2.4c5,6.6,2.4,14.2-7.8,22.1
		c4,5,7.9,10,12.2,15.4c2.3-3.1,4.3-5.7,6.7-8.8c1.4,1.4,2.7,2.8,4.2,4.4c-2.4,3.1-4.6,6-7.1,9.2c2.6,3,5.2,6.1,8,9.2
		c-5.8,2.7-9.2-0.3-12.4-4.8c-7.1,5.1-14.6,8.7-23.2,5.7c-3.2-1.1-6.6-3.6-8.5-6.3C604.3,381.2,607.2,373.8,619.7,362.8z M624,368
		c-5.5,3.8-10.6,7.2-9.7,14.4c0.5,4.3,2.9,7.5,7.2,8.7c6.7,1.9,11.3-1.8,16.1-6.1C633,379.3,628.7,373.9,624,368z M626.5,360.1
		c5.6-2.8,8.7-6.9,7.3-10.9c-0.7-2.1-3.2-4.9-5.1-5.1c-2.2-0.3-5.5,1.4-6.9,3.2C619.2,350.7,621.2,355.1,626.5,360.1z"/>
	<path class="st0" d="M716.4,390.7c-0.2,1.8-0.4,3.1-0.6,4.7c-1.7,0-3.4,0-5.4,0c0-19.5,0-38.7,0-58.3c1.8,0,3.5,0,5.6,0
		c0,9.2,0,18.5,0,28.8c5-5,10.3-7.5,16.3-5.7c3.5,1,7.2,3,9.5,5.7c6.2,7.3,4.9,20.7-2,26.9C733.5,398.5,724.4,397.9,716.4,390.7z
		 M716.1,378.2c0,8.4,4.6,13.5,11.9,13.5c7.3,0,11.8-5.5,11.7-14.3c-0.1-7.9-4.5-12.7-11.5-12.7
		C720.9,364.7,716.1,370.1,716.1,378.2z"/>
	<path class="st0" d="M998.9,395.6c-1.8,0-3.2,0-5.1,0c-0.3-1.4-0.5-2.8-0.8-4.1c-12.7,8.5-23.3,7.8-28.6-8.1
		c-2.9-8.9,1-17.8,7.4-21.6c6.4-3.8,13.8-2.7,21,3.5c0-9.6,0-18.7,0-28.3c2.2-0.1,3.9-0.2,6-0.3
		C998.9,356.3,998.9,375.7,998.9,395.6z M993.3,378.3c0-8.2-4.7-13.6-12-13.6c-7.2,0-11.4,4.7-11.4,12.8c0,8.7,4.2,14.1,11.3,14.2
		C988.7,391.8,993.2,386.8,993.3,378.3z"/>
	<path class="st0" d="M1311.3,412.4c-2.4,0-4,0-5.9,0c0-17.2,0-34.1,0-51.4c1.7,0,3.4,0,5.3,0c0.1,1.3,0.3,2.6,0.4,3.6
		c15.7-9,26.6-6.7,29.3,13c1,7.1-1.7,13.8-8.6,17.2c-7.3,3.6-14.2,2.3-20.6-4.3C1311.3,398.3,1311.3,405.2,1311.3,412.4z
		 M1311.1,378.1c0,8.1,4.8,13.5,12,13.5c7.1,0,11.5-4.8,11.5-12.6c0.1-8.8-4.4-14.3-11.6-14.4
		C1315.7,364.6,1311.1,369.8,1311.1,378.1z"/>
	<path class="st0" d="M1201.1,395.4c-2,0-3.6,0-5.9,0c0-6.6,0-13.2,0-19.8c0-7.5-2.7-10.7-8.6-10.9c-6.7-0.2-10.8,3.5-11.2,10.5
		c-0.2,3.3-0.1,6.7-0.1,10c0,3.3,0,6.6,0,10.2c-2.1,0-3.8,0-6,0c0-1.4,0-2.5,0-3.6c0-18.1,0-36.3,0-54.7c2.1,0,3.8,0,5.9,0
		c0,9.2,0,18.3,0,26.6c4.8-1.3,9.3-3.5,14-3.7c7.7-0.4,12,4.4,12.2,12c0.2,6.8,0.1,13.7,0,20.5
		C1201.3,393.2,1201.2,394,1201.1,395.4z"/>
	<path class="st0" d="M374.6,361.2c-5,11.5-10,22.8-15.5,35.3c-4.1-8.9-7.7-16.7-11.6-25.3c-3.9,8.6-7.6,16.4-11.7,25.4
		c-5.4-12.3-10.4-23.7-15.5-35.2c4.9-1.9,7.1,0.1,8.5,4.4c2,5.9,4.5,11.7,7.3,18.7c3.9-8.9,7.4-16.8,11.3-25.6
		c3.8,8.8,7.2,16.7,11,25.6c2.7-6.8,5.4-12.6,7.4-18.6C367.3,361.6,369.4,359.6,374.6,361.2z"/>
	<path class="st0" d="M494.8,365c0.2-1.4,0.3-2.6,0.5-4.1c1.8,0,3.5,0,5.6,0c0,11.4,0,22.8,0,34.5c-1.8,0-3.6,0-5.5,0
		c-0.2-1.3-0.3-2.6-0.5-3.8c-12.1,7.9-22.4,7.8-28.3-7.1c-3.3-8.2,0.1-17.9,6.1-22.1C479.1,358,486.7,358.9,494.8,365z M471.9,377.5
		c-0.1,9.2,4,14.2,11.7,14.2c7.2,0,11.5-4.7,11.5-12.7c0.1-8.7-4.5-14.3-11.8-14.3C476.3,364.7,472,369.4,471.9,377.5z"/>
	<path class="st0" d="M873.9,365.3c0.2-1.8,0.3-3,0.5-4.4c1.9,0,3.7,0,5.7,0c0,11.5,0,22.7,0,34.5c-1.7,0.1-3.4,0.2-5.5,0.3
		c-0.2-1.5-0.4-2.9-0.6-4.4c-9.7,7.2-18.9,7-25-0.3c-5.8-6.9-5.4-20.3,0.8-26.8C855.9,357.9,865.5,358.2,873.9,365.3z M874.2,378.7
		c0-8.4-4.5-13.9-11.6-14c-7.3-0.1-11.6,4.7-11.7,13.1c0,8.9,4,13.8,11.5,13.9C869.8,391.8,874.2,387,874.2,378.7z"/>
	<path class="st0" d="M157.8,379.5c-0.3,5.9,2.3,9.4,7.1,11.3c5.9,2.3,9.8,0.7,16.7-6.8c1.1,0.9,2.3,1.7,3.4,2.6
		c-2.7,8.7-13.8,11.7-21.6,9.2c-8.7-2.9-13.4-11.9-11.4-22.2c1.8-9.1,9.6-14.9,19-13.9c9.3,1,14.4,7.8,14.5,19.8
		C176.3,379.5,167.1,379.5,157.8,379.5z M179.3,374.4c-0.6-6.5-4.1-9.7-10.4-9.7c-6.3-0.1-10.2,3.4-10.9,9.7
		C165.1,374.4,172.2,374.4,179.3,374.4z"/>
	<path class="st0" d="M249.5,379.7c-9.4,0-18.5,0-27.8,0c-0.3,5.8,2.2,9.3,7.1,11.1c7.4,2.7,12.4-1,16.5-7c1.3,1,2.5,1.9,3.6,2.7
		c-2.7,8.8-13.9,11.7-21.5,9.2c-8.7-2.9-13.4-11.9-11.4-22.2c1.8-9.1,9.6-14.9,19-13.9C244.3,360.7,249.4,367.5,249.5,379.7z
		 M243.3,374.5c0.5-6.4-5.5-10.4-11.6-9.8c-5.7,0.5-9.3,4.1-9.4,9.8C229.2,374.5,236.2,374.5,243.3,374.5z"/>
	<path class="st0" d="M435.4,379.6c-9.1,0-18.2,0-27.2,0c-0.4,5.9,1.6,9.3,6.5,11.2c6,2.4,10.5,0.7,16.9-6.8
		c1.2,0.9,2.4,1.9,3.6,2.8c-4.5,8.7-13.9,12.2-22.9,8.7c-8.2-3.2-12.5-13.1-10-23.1c2.2-8.6,10.5-14,19.5-12.6
		C430.9,361.2,435.8,368.3,435.4,379.6z M408,374.4c7.1,0,14.1,0,21.2,0c-0.4-6.2-3.7-9.4-9.7-9.7C413,364.3,408.9,367.7,408,374.4z
		"/>
	<path class="st0" d="M795.6,396.7c-10.4,0-19-8.3-19.1-18.4c-0.1-10.4,8.6-18.7,19.4-18.6c10.5,0.1,19,8.5,18.9,18.6
		C814.7,388.3,806,396.7,795.6,396.7z M795.5,391.7c7.2,0.1,13.1-5.9,13.2-13.4c0.1-7.5-5.8-13.6-13-13.6c-7.3,0-13.1,5.9-13.2,13.4
		C782.5,385.5,788.2,391.6,795.5,391.7z"/>
	<path class="st0" d="M1253.6,359.7c10.5,0,19,8.2,19.2,18.3c0.1,10.2-8.8,18.8-19.4,18.7c-10.4-0.1-19-8.6-18.9-18.6
		C1234.6,367.8,1243.1,359.7,1253.6,359.7z M1253.8,391.7c7.2,0,13-6.2,12.9-13.6c-0.1-7.5-6-13.5-13.2-13.4
		c-7.3,0.1-13,6.1-12.9,13.6C1240.6,385.8,1246.5,391.7,1253.8,391.7z"/>
	<path class="st0" d="M25.8,366.8c-1.6,1-2.8,1.7-3.2,1.9c-3.8-1.5-6.8-3.5-10-3.7c-1.7-0.2-4.1,2.2-5.3,4c-0.4,0.7,1.7,3.7,3.3,4.6
		c3.2,1.7,6.9,2.4,10.1,4c6.6,3.2,7.5,11.3,2,16.1c-6.6,5.7-18.4,3.6-22.9-4.4c1.4-1,2.9-2.1,3.3-2.4c3.8,1.9,6.8,4.2,10.1,4.6
		c2,0.3,5.4-1.9,6.4-3.9c1.5-3.1-1.2-5-4.1-6.2c-3.6-1.6-7.5-2.8-10.8-5c-5.4-3.5-5.4-9.8-0.5-13.8
		C10.9,357.3,21.5,359.2,25.8,366.8z"/>
	<path class="st0" d="M1031.8,389.3c1.7-1.2,3.2-2.2,4.6-3.3c-0.1,0.4-0.2,0.9-0.4,1.3c3.3,1.4,6.5,3.6,10,4.1
		c1.8,0.2,5.2-2.1,5.7-3.9c0.4-1.5-1.8-4.6-3.7-5.8c-3.1-2.1-7.3-2.6-10.2-4.9c-2.3-1.8-4.7-5.4-4.4-7.9c0.4-2.8,3.1-6.3,5.8-7.8
		c6.6-3.7,15-0.8,18.5,5.6c-1.3,0.9-2.7,1.8-3,2c-3.9-1.5-6.9-3.4-10.1-3.7c-1.6-0.2-4.5,1.9-5,3.6c-0.4,1.3,1.6,4.1,3.2,5
		c2.8,1.6,6.2,2.2,9.3,3.5c3.5,1.5,6.1,3.9,6.3,8.2c0.1,4.5-1.7,7.7-5.6,9.8C1045.7,398.8,1036.7,396.5,1031.8,389.3z"/>
	<path class="st0" d="M1110.8,389.3c1.7-1.2,3.1-2.3,3.5-2.6c3.9,1.9,6.9,4.2,10.1,4.6c2,0.3,5.4-1.9,6.4-3.9c1.5-3.1-1.3-5-4.1-6.2
		c-3.5-1.5-7.2-2.7-10.4-4.7c-6.3-4-5.8-11.6,0.8-15.2c6.9-3.8,15.7-1.6,19.6,5.2c-1.3,0.9-2.7,1.8-3,2c-3.8-1.5-6.9-3.5-10-3.7
		c-1.7-0.2-4.1,2.2-5.2,4c-0.4,0.7,1.7,3.7,3.3,4.6c2.9,1.6,6.2,2.2,9.3,3.5c3.8,1.6,6.4,4.1,6.4,8.6c0,4.5-2.1,7.6-6,9.6
		C1124.4,398.7,1115.8,396.4,1110.8,389.3z"/>
	<path class="st0" d="M289.5,395.4c-2.5,0-4.1,0-6.3,0c0-9.9,0-19.6,0-29.6c-2.3-0.1-4-0.2-6.1-0.4c0-1.6,0-3,0-4.6
		c2-0.1,3.7-0.2,6-0.4c0-4.5,0-8.9,0-13.6c2.1-0.1,3.8-0.2,6-0.3c0,4.6,0,9,0,13.7c2.4,0.2,4.4,0.4,6.5,0.6c0,1.5,0,2.9,0,4.5
		c-2,0.1-3.8,0.3-6.2,0.4C289.5,375.6,289.5,385.3,289.5,395.4z"/>
	<path class="st0" d="M66.2,360.4c2.8,0.2,4.5,0.3,6.4,0.4c0,1.5,0,2.9,0,4.6c-1.9,0.1-3.7,0.3-6.1,0.4c0,9.7,0,19.4,0,29.5
		c-2.3,0-4,0-6.3,0c0-9.7,0-19.5,0-29.5c-2.3-0.1-4-0.2-6.1-0.4c0-1.6,0-2.9,0-4.6c1.9-0.1,3.7-0.3,6-0.5c0-4.5,0-8.9,0-13.5
		c2.1-0.1,3.7-0.2,6.1-0.3C66.2,351.3,66.2,355.9,66.2,360.4z"/>
	<path class="st0" d="M536.5,360.9c1.6-0.1,3-0.1,4.7-0.2c0.3,1.9,0.6,3.5,1,5.4c6.7-6.6,8.9-7.3,15.1-5.3c-0.5,1.5-1,3-1.4,4.4
		c-10.1-0.2-13.2,2.8-13.5,12.9c-0.2,5.6,0,11.3,0,17.3c-2,0-3.8,0-5.8,0C536.5,383.9,536.5,372.5,536.5,360.9z"/>
	<path class="st0" d="M921.3,395.5c-2.3,0-3.9,0-5.8,0c0-11.6,0-23,0-34.6c1.6-0.1,3-0.1,4.7-0.2c0.3,1.9,0.7,3.5,1.1,5.9
		c3.9-5.3,8.3-8.3,15-6.1c-0.6,1.8-1,3.3-1.5,4.7c-10.1-0.1-13.1,2.8-13.5,12.9c-0.1,2.8,0,5.7,0,8.5
		C921.3,389.3,921.3,392.1,921.3,395.5z"/>
	<path class="st0" d="M109.3,395.5c-2.2,0-3.8,0-5.8,0c0-11.4,0-22.8,0-34.5c1.6,0,3.2,0,4.9,0c0.2,1.8,0.4,3.3,0.7,5.8
		c4-5.4,8.4-8.4,15.2-6.3c-0.5,1.7-1,3.2-1.4,4.7c-10.3,0.1-13.2,2.8-13.5,12.9C109.2,383.6,109.3,389.2,109.3,395.5z"/>
</g>
</svg>
