<?xml version="1.0" encoding="utf-8"?>
<!-- Generator: Adobe Illustrator 25.2.1, SVG Export Plug-In . SVG Version: 6.00 Build 0)  -->
<svg version="1.1" id="Layer_1" xmlns="http://www.w3.org/2000/svg" xmlns:xlink="http://www.w3.org/1999/xlink" x="0px" y="0px"
	 width="137.1px" height="259.9px" viewBox="0 0 137.1 259.9" style="enable-background:new 0 0 137.1 259.9;" xml:space="preserve"
	>
<style type="text/css">
	.st0{fill:#374A67;}
</style>
<g>
	<path class="st0" d="M24.7,132.1C36.5,145,48.4,157.8,62,172.6c-2.7,1.9-5.6,3.3-7.9,5.4c-15.1,13.8-5.2,32.2,8.5,36.2
		c8.5,2.5,14.6,0,20.7-4.4c7.3-5.3,9-13.1,6.6-21.3c-1.1-3.9-4.3-7.3-7.1-10.5c-7.6-8.3-15.5-16.3-23.2-24.5
		c-4.6-4.9-8.6-10.4-13.5-14.8c-7.4-6.6-13.4-14.4-20.4-21.4c-9.1-9-17.6-18.5-21.9-31.2c-4.6-13.5-5.4-27.1-0.4-40.4
		C6.3,38,9.5,29.9,14.8,23.9C22.2,15.4,31,7.5,42.5,4.6c9-2.3,18.4-4.7,27.6-4.6c20.4,0.2,37.8,8.4,51.1,24.1
		c12.5,14.8,17.5,32.1,14.6,51.2c-2,13.2-7.8,24.9-17.1,34.3c-4.4,4.4-2.1,9.8-4.1,14.3c-0.4,0.9-0.3,2.2-0.5,4.4
		c-12.9-13.7-25.1-26.6-37.8-40c2.4-2.7,4.3-5.6,6.9-7.8c5.8-4.9,8.7-11.1,7-18.3c-1.9-8.2-6.4-14.6-15.4-16.7
		c-11.3-2.7-19.2,0-25.3,8.9c-4.8,6.9-4.4,17.1,1.4,23.3C59.8,87.2,69,96.6,78,106.2c8.9,9.5,17.7,19.3,26.5,28.9
		c6.8,7.4,14.1,14.5,20.2,22.4c10.7,13.8,14.2,30.1,11.4,47c-3.7,22.1-16.3,38.3-36.4,48.1c-11.7,5.8-24.5,8.5-37.5,6.8
		c-22.4-2.9-40.7-13-52.8-32.9C2,214.2-0.7,201,0.6,187c1.1-11.9,5.7-23,13.2-32.1c5.6-6.8,10.1-13.2,9-22.6
		C23.5,132.2,24.1,132.1,24.7,132.1z"/>
</g>
</svg>
