<?xml version="1.0" encoding="utf-8"?>
<!-- Generator: Adobe Illustrator 25.2.1, SVG Export Plug-In . SVG Version: 6.00 Build 0)  -->
<svg version="1.1" id="Layer_1" xmlns="http://www.w3.org/2000/svg" xmlns:xlink="http://www.w3.org/1999/xlink" x="0px" y="0px"
	 width="256px" height="255.8px" viewBox="0 0 256 255.8" style="enable-background:new 0 0 256 255.8;" xml:space="preserve">
<style type="text/css">
	.st0{fill:#384B66;}
</style>
<g>
	<path class="st0" d="M61.1,96.2c-0.2,1.9-0.5,3.9-0.7,5.8C59,114.9,60,127.6,63.7,140c0.7,2.3,0.2,3.9-1.4,5.6
		c-6.4,6.5-12.9,13-19.1,19.7c-14,15.1-11,39.1,6.2,50.3c12.5,8.2,29.6,7.2,40.2-3.2c16-15.8,31.5-32.1,47-48.4
		c4.8-5.1,8.2-11.1,8.9-18.3c1.4-13.8-4-24.3-15.3-32c-3.7-2.6-3.9-3-1.8-7c4.2-7.9,10.2-14.4,17-20.1c1.8-1.5,3.5-1.6,5.4-0.2
		c15.7,11.4,25.6,26.5,28.6,45.7c2.5,15.9,0.2,31.1-7.9,45.1c-2.7,4.6-6.1,9-9.8,12.9c-13.8,14.5-27.9,28.6-41.7,43.1
		c-10.3,10.8-22.4,17.8-37,21C45,262.6,6.7,236.5,0.9,198c-3.6-23.8,3.1-44.4,20-61.7c12.5-12.8,25.1-25.6,37.6-38.4
		c0.7-0.7,1.1-1.6,1.7-2.4C60.5,95.7,60.8,96,61.1,96.2z"/>
	<path class="st0" d="M194.4,160.7c0.4-3.6,0.9-6.5,1.2-9.5c1.1-12.1,0.1-24-3.6-35.5c-0.7-2.1-0.1-3.6,1.3-5.2
		c6.1-6.2,12.3-12.5,18.3-18.8c9.2-9.7,12.2-21.2,8-33.9c-4.1-12.6-13.2-20.3-26.3-22.5c-10.6-1.8-20.2,1-27.8,8.7
		C150.2,59.4,135.1,75,120,90.7c-6.2,6.5-10.3,14.1-10.1,23.5c0.3,12.4,5.8,21.8,16,28.6c3.1,2,3.3,2.9,1.3,6
		c-4.9,7.6-10.8,14.3-17.2,20.7c-1.6,1.6-3.1,1.8-5.1,0.4c-15.1-10.6-24.5-25.1-27.9-43.1c-4.8-24.9,1.9-46.4,19.8-64.5
		c14.1-14.2,27.6-29,42.1-42.7C158.9,0.8,182.7-4.6,208.6,4c26.1,8.6,41.8,27.4,46.3,54.5c3.8,22.7-2.7,42.8-18.6,59.4
		c-13.2,13.9-26.8,27.4-40.2,41.1C195.8,159.4,195.3,159.8,194.4,160.7z"/>
</g>
</svg>
