<?xml version="1.0" encoding="utf-8"?>
<!-- Generator: Adobe Illustrator 25.2.1, SVG Export Plug-In . SVG Version: 6.00 Build 0)  -->
<svg version="1.1" id="Layer_1" xmlns="http://www.w3.org/2000/svg" xmlns:xlink="http://www.w3.org/1999/xlink" x="0px" y="0px"
	 width="183.8px" height="202.9px" viewBox="0 0 183.8 202.9" style="enable-background:new 0 0 183.8 202.9;" xml:space="preserve"
	>
<style type="text/css">
	.st0{fill:#374A67;}
</style>
<g>
	<path class="st0" d="M21.4,154.6c7.1,8.3,14.2,16.4,21.7,25.1c-6.3,6.9-13.5,14.9-20.9,23.1c-9.5-6-16.1-14.4-22.1-24.6
		c6-6.7,12.1-13.7,18.5-20.6c2.3-2.5,3.1-4.7,1.5-8c-7.7-15.9-10.2-33-9.8-50.4c0.4-18.7,3.7-36.8,14-52.9
		c17.1-26.9,42.7-37,73.4-35.2c19.5,1.2,26.2,3.8,41.5,12.9c7.1-7.6,14.2-15.3,22.4-24.1c7.7,8.4,14.8,16.3,22.3,24.4
		c-7.7,8.5-14.6,16.1-21.9,24.1c-6.1-9.9-12.5-18.6-22.8-24c-5,5.5-10.1,11.2-15.2,16.9c-1.7,2-3,2.7-5.8,1.1
		c-31.8-18.1-68.8-0.6-75,35.6c-2.8,15.9-2.8,31.8,0.1,47.7c0.4,2-0.5,4.9-1.8,6.5C35.1,139.6,28.6,146.6,21.4,154.6z"/>
	<path class="st0" d="M43.8,179.3c6-7,10.8-13.1,16.2-18.6c0.9-1,4.4-0.5,6,0.4c20,11.3,48.1,8,62.7-8.8
		c8.2-9.4,11.8-20.8,13.4-32.8c1.9-14.6,1.7-29.2-1.4-43.7c-0.3-1.3-0.3-3.3,0.4-4.1c6.5-7.5,13.3-14.8,20.4-22.7
		c5.2,8.9,8.4,17.9,10.1,27.4c4.6,26.4,3.8,52.3-9.1,76.4c-12.1,22.6-31.4,35.2-56.9,39c-14,2.1-27.5,0.7-40.8-3
		C57.8,186.7,51.2,182.6,43.8,179.3z"/>
</g>
</svg>
