<?xml version="1.0" encoding="utf-8"?>
<!-- Generator: Adobe Illustrator 25.2.1, SVG Export Plug-In . SVG Version: 6.00 Build 0)  -->
<svg version="1.1" id="Layer_1" xmlns="http://www.w3.org/2000/svg" xmlns:xlink="http://www.w3.org/1999/xlink" x="0px" y="0px"
	 width="58px" height="54.3px" viewBox="0 0 58 54.3" style="enable-background:new 0 0 58 54.3;" xml:space="preserve">
<style type="text/css">
	.st0{fill:#374A67;}
</style>
<g>
	<path class="st0" d="M1.8,4.9c1.9,0,3.8,0,5.7,0c12.5,0.2,24.8-1.1,36.8-4.9c0.5-0.2,1.4,0,1.8,0.4c3.4,3.3,6.8,6.7,10,10.1
		c0.5,0.5,0.8,1.4,0.8,2.1c0.1,3.2-0.1,6.4,0.1,9.6c0.1,1.9-0.4,3.3-1.9,4.3c-0.5,0.4-1,0.8-2,1.7c1.4,1.2,2.7,2.1,3.8,3.2
		c0.5,0.5,0.9,1.5,0.9,2.2c0.1,4.5,0,8.9,0.1,13.4c0,1.2-0.4,1.7-1.5,2.1c-11.9,3.8-24,5.2-36.4,5.1c-2.8,0-5.8,0.4-8.2-0.6
		c-2.3-1-4-3.6-5.9-5.5c-1.6-1.6-3.3-3.2-4.9-5c-0.5-0.6-0.9-1.6-1-2.4C0,37.2,0,33.7,0.1,30.1c0-0.7,0.5-1.6,1.1-2
		c1.4-1.1,2.9-1.9,4.6-3c-1.2-1.2-2.3-2.3-3.3-3.4c-0.4-0.4-0.8-1.1-0.8-1.6c-0.1-4.9,0-9.8,0-14.8C1.7,5.2,1.8,5.1,1.8,4.9z
		 M16.1,49.7c0.5,0,0.8,0.1,1.2,0.1c5.4-0.1,10.8,0.1,16.1-0.5c6.4-0.7,12.6-2.1,18.9-3.3c0.5-0.1,1.2-0.7,1.2-1.1
		c0.1-2.1,0.1-4.2,0.1-6.6c-7.3,2-14.5,3.4-22.3,3.8c0.7-0.6,1-0.8,1.3-1.1c6.3-5.3,12.5-10.6,18.8-16c0.5-0.5,1.2-1.1,1.2-1.8
		c0.2-1.9,0.1-3.9,0.1-6.1c-11.5,3.2-23.1,4.2-35,3.9c0,1.8,0,3.4,0,4.9c0,2.4,0,2.5,2.4,2.4c5.6-0.1,11.3-0.4,17.1-0.6
		c-0.6,0.5-1.2,1.1-1.9,1.5c-6,4.3-12,8.5-17.9,12.8c-0.5,0.4-1.2,1-1.2,1.5C16,45.7,16.1,47.6,16.1,49.7z"/>
</g>
</svg>
